<svg xmlns="http://www.w3.org/2000/svg" width="616" height="540" viewBox="0 0 616 540">
  <g fill="none" fill-rule="evenodd">
    <rect width="616" height="540" fill="#FFF"/>
    <g transform="translate(55 19)">
      <g transform="translate(0 38)">
        <text fill="#679F00" font-family="GEInspiraSans-Regular, GE Inspira Sans" font-size="12">
          <tspan x="7.75" y="53.925">CDU 2</tspan>
        </text>
        <g transform="translate(11.24)">
          <path fill="#679F00" fill-rule="nonzero" d="M6.32290968,13.4012539 L5.10869565,13.4012539 L5.10869565,10.7869175 C5.10869565,9.55006642 5.83352517,8.54740053 6.72764768,8.54740053 L8.15734642,8.54740053 C8.38087705,8.54740053 8.56208443,8.29673406 8.56208443,7.98752125 L8.56208464,2.23951993 C8.56208464,1.00266906 9.28691395,3.24099587e-06 10.1810363,2.98354682e-06 L16.772352,0 C17.6664745,-2.5744854e-07 18.3913042,1.00266542 18.3913043,2.23951722 L18.3913031,4.74148402 L17.1770891,4.74148288 L17.1770903,2.23951683 C17.1770903,1.93030407 16.9958829,1.67963765 16.7723523,1.67963771 L10.1810366,1.67964069 C9.95750599,1.67964076 9.77629866,1.93030721 9.77629866,2.23951997 L9.77629845,7.98752129 C9.77629845,9.22437235 9.05146894,10.2270382 8.15734642,10.2270382 L6.72764768,10.2270382 C6.50411705,10.2270382 6.32290968,10.4777047 6.32290968,10.7869175 L6.32290968,13.4012539 Z"/>
          <path fill="#679F00" d="M1.11581384,18.9841321 C1.54578937,17.3274213 3.3988134,16.0815047 5.61956522,16.0815047 C7.84031703,16.0815047 9.69334107,17.3274213 10.1233166,18.9841321 L10.2173913,18.9841321 L10.2173913,36.1833856 L1.02173913,36.1833856 L1.02173913,18.9841321 L1.11581384,18.9841321 Z"/>
          <rect width="3.065" height="1.34" x="4.087" y="13.401" fill="#679F00" rx=".67"/>
          <rect width="3.065" height="1.34" x="16.348" y="5.361" fill="#679F00" rx=".67"/>
          <rect width="11.239" height="2.68" y="34.843" fill="#679F00" rx="1.34"/>
          <g fill="#679F00" transform="translate(12.26 8.04)">
            <path d="M6.13043478,0 L6.13043478,0 C9.51618042,-6.21951384e-16 12.2608696,2.74468914 12.2608696,6.13043478 L12.2608696,16.3481396 L0,16.3495298 L0,6.13043478 C-4.14634256e-16,2.74468914 2.74468914,6.21951384e-16 6.13043478,0 Z"/>
            <rect width="12.261" height="2.144" y="17.154"/>
            <rect width="12.261" height="9.381" y="20.102"/>
          </g>
          <path fill="#FFF" fill-rule="nonzero" d="M5.73958865,36.1833856 L5.05895068,36.1833856 L5.05895068,32.9541807 L6.8251701,32.9541807 C7.19415429,32.9541807 7.49327507,32.576946 7.49327507,32.1116035 C7.49327507,31.646261 7.19415429,31.2690264 6.8251701,31.2690264 L3.39222594,31.2690264 C2.64733317,31.2690264 2.04347826,30.5074779 2.04347826,29.5680602 C2.04347826,28.6286424 2.64733317,27.8670939 3.39222594,27.8670939 L6.77948871,27.8670939 C7.17370203,27.8670939 7.49327507,27.464066 7.49327507,26.9669059 C7.49327507,26.4697458 7.17370203,26.0667179 6.77948871,26.0667179 L3.41506427,26.0667179 C2.65755823,26.0667179 2.04347826,25.2922741 2.04347826,24.3369493 C2.04347826,23.3816244 2.65755823,22.6071806 3.41506427,22.6071806 L6.73157858,22.6071806 C7.15225194,22.6071806 7.49327507,22.177101 7.49327507,21.646571 C7.49327507,21.116041 7.15225194,20.6859614 6.73157858,20.6859614 L5.05895068,20.6859614 L5.05895068,17.4216301 L5.73958865,17.4216301 L5.73958865,19.8275783 L6.73157858,19.8275783 C7.52815791,19.8275783 8.17391304,20.6419691 8.17391304,21.646571 C8.17391304,22.6511729 7.52815791,23.4655637 6.73157858,23.4655637 L3.41506427,23.4655637 C3.0334642,23.4655637 2.72411623,23.8556963 2.72411623,24.3369493 C2.72411623,24.8182022 3.0334642,25.2083348 3.41506427,25.2083348 L6.77948871,25.2083348 C7.54960801,25.2083348 8.17391304,25.9956739 8.17391304,26.9669059 C8.17391304,27.9381379 7.54960801,28.725477 6.77948871,28.725477 L3.39222594,28.725477 C3.02323914,28.725477 2.72411623,29.1027143 2.72411623,29.5680602 C2.72411623,30.033406 3.02323914,30.4106433 3.39222594,30.4106433 L6.8251701,30.4106433 C7.57006026,30.4106433 8.17391304,31.1721891 8.17391304,32.1116035 C8.17391304,33.0510179 7.57006026,33.8125638 6.8251701,33.8125638 L5.73958865,33.8125638 L5.73958865,36.1833856 Z"/>
        </g>
      </g>
      <g transform="translate(0 218)">
        <text fill="#679F00" font-family="GEInspiraSans-Regular, GE Inspira Sans" font-size="12">
          <tspan x="7.75" y="53.925">CDU 3</tspan>
        </text>
        <g transform="translate(11.24)">
          <path fill="#679F00" fill-rule="nonzero" d="M6.32290968,13.4012539 L5.10869565,13.4012539 L5.10869565,10.7869175 C5.10869565,9.55006642 5.83352517,8.54740053 6.72764768,8.54740053 L8.15734642,8.54740053 C8.38087705,8.54740053 8.56208443,8.29673406 8.56208443,7.98752125 L8.56208464,2.23951993 C8.56208464,1.00266906 9.28691395,3.24099587e-06 10.1810363,2.98354682e-06 L16.772352,0 C17.6664745,-2.5744854e-07 18.3913042,1.00266542 18.3913043,2.23951722 L18.3913031,4.74148402 L17.1770891,4.74148288 L17.1770903,2.23951683 C17.1770903,1.93030407 16.9958829,1.67963765 16.7723523,1.67963771 L10.1810366,1.67964069 C9.95750599,1.67964076 9.77629866,1.93030721 9.77629866,2.23951997 L9.77629845,7.98752129 C9.77629845,9.22437235 9.05146894,10.2270382 8.15734642,10.2270382 L6.72764768,10.2270382 C6.50411705,10.2270382 6.32290968,10.4777047 6.32290968,10.7869175 L6.32290968,13.4012539 Z"/>
          <path fill="#679F00" d="M1.11581384,18.9841321 C1.54578937,17.3274213 3.3988134,16.0815047 5.61956522,16.0815047 C7.84031703,16.0815047 9.69334107,17.3274213 10.1233166,18.9841321 L10.2173913,18.9841321 L10.2173913,36.1833856 L1.02173913,36.1833856 L1.02173913,18.9841321 L1.11581384,18.9841321 Z"/>
          <rect width="3.065" height="1.34" x="4.087" y="13.401" fill="#679F00" rx=".67"/>
          <rect width="3.065" height="1.34" x="16.348" y="5.361" fill="#679F00" rx=".67"/>
          <rect width="11.239" height="2.68" y="34.843" fill="#679F00" rx="1.34"/>
          <g fill="#679F00" transform="translate(12.26 8.04)">
            <path d="M6.13043478,0 L6.13043478,0 C9.51618042,-6.21951384e-16 12.2608696,2.74468914 12.2608696,6.13043478 L12.2608696,16.3481396 L0,16.3495298 L0,6.13043478 C-4.14634256e-16,2.74468914 2.74468914,6.21951384e-16 6.13043478,0 Z"/>
            <rect width="12.261" height="2.144" y="17.154"/>
            <rect width="12.261" height="9.381" y="20.102"/>
          </g>
          <path fill="#FFF" fill-rule="nonzero" d="M5.73958865,36.1833856 L5.05895068,36.1833856 L5.05895068,32.9541807 L6.8251701,32.9541807 C7.19415429,32.9541807 7.49327507,32.576946 7.49327507,32.1116035 C7.49327507,31.646261 7.19415429,31.2690264 6.8251701,31.2690264 L3.39222594,31.2690264 C2.64733317,31.2690264 2.04347826,30.5074779 2.04347826,29.5680602 C2.04347826,28.6286424 2.64733317,27.8670939 3.39222594,27.8670939 L6.77948871,27.8670939 C7.17370203,27.8670939 7.49327507,27.464066 7.49327507,26.9669059 C7.49327507,26.4697458 7.17370203,26.0667179 6.77948871,26.0667179 L3.41506427,26.0667179 C2.65755823,26.0667179 2.04347826,25.2922741 2.04347826,24.3369493 C2.04347826,23.3816244 2.65755823,22.6071806 3.41506427,22.6071806 L6.73157858,22.6071806 C7.15225194,22.6071806 7.49327507,22.177101 7.49327507,21.646571 C7.49327507,21.116041 7.15225194,20.6859614 6.73157858,20.6859614 L5.05895068,20.6859614 L5.05895068,17.4216301 L5.73958865,17.4216301 L5.73958865,19.8275783 L6.73157858,19.8275783 C7.52815791,19.8275783 8.17391304,20.6419691 8.17391304,21.646571 C8.17391304,22.6511729 7.52815791,23.4655637 6.73157858,23.4655637 L3.41506427,23.4655637 C3.0334642,23.4655637 2.72411623,23.8556963 2.72411623,24.3369493 C2.72411623,24.8182022 3.0334642,25.2083348 3.41506427,25.2083348 L6.77948871,25.2083348 C7.54960801,25.2083348 8.17391304,25.9956739 8.17391304,26.9669059 C8.17391304,27.9381379 7.54960801,28.725477 6.77948871,28.725477 L3.39222594,28.725477 C3.02323914,28.725477 2.72411623,29.1027143 2.72411623,29.5680602 C2.72411623,30.033406 3.02323914,30.4106433 3.39222594,30.4106433 L6.8251701,30.4106433 C7.57006026,30.4106433 8.17391304,31.1721891 8.17391304,32.1116035 C8.17391304,33.0510179 7.57006026,33.8125638 6.8251701,33.8125638 L5.73958865,33.8125638 L5.73958865,36.1833856 Z"/>
        </g>
      </g>
      <g transform="translate(0 403)">
        <text fill="#679F00" font-family="GEInspiraSans-Regular, GE Inspira Sans" font-size="12">
          <tspan x="7.75" y="53.925">CDU 4</tspan>
        </text>
        <g transform="translate(11.24)">
          <path fill="#679F00" fill-rule="nonzero" d="M6.32290968,13.4012539 L5.10869565,13.4012539 L5.10869565,10.7869175 C5.10869565,9.55006642 5.83352517,8.54740053 6.72764768,8.54740053 L8.15734642,8.54740053 C8.38087705,8.54740053 8.56208443,8.29673406 8.56208443,7.98752125 L8.56208464,2.23951993 C8.56208464,1.00266906 9.28691395,3.24099587e-06 10.1810363,2.98354682e-06 L16.772352,0 C17.6664745,-2.5744854e-07 18.3913042,1.00266542 18.3913043,2.23951722 L18.3913031,4.74148402 L17.1770891,4.74148288 L17.1770903,2.23951683 C17.1770903,1.93030407 16.9958829,1.67963765 16.7723523,1.67963771 L10.1810366,1.67964069 C9.95750599,1.67964076 9.77629866,1.93030721 9.77629866,2.23951997 L9.77629845,7.98752129 C9.77629845,9.22437235 9.05146894,10.2270382 8.15734642,10.2270382 L6.72764768,10.2270382 C6.50411705,10.2270382 6.32290968,10.4777047 6.32290968,10.7869175 L6.32290968,13.4012539 Z"/>
          <path fill="#679F00" d="M1.11581384,18.9841321 C1.54578937,17.3274213 3.3988134,16.0815047 5.61956522,16.0815047 C7.84031703,16.0815047 9.69334107,17.3274213 10.1233166,18.9841321 L10.2173913,18.9841321 L10.2173913,36.1833856 L1.02173913,36.1833856 L1.02173913,18.9841321 L1.11581384,18.9841321 Z"/>
          <rect width="3.065" height="1.34" x="4.087" y="13.401" fill="#679F00" rx=".67"/>
          <rect width="3.065" height="1.34" x="16.348" y="5.361" fill="#679F00" rx=".67"/>
          <rect width="11.239" height="2.68" y="34.843" fill="#679F00" rx="1.34"/>
          <g fill="#679F00" transform="translate(12.26 8.04)">
            <path d="M6.13043478,0 L6.13043478,0 C9.51618042,-6.21951384e-16 12.2608696,2.74468914 12.2608696,6.13043478 L12.2608696,16.3481396 L0,16.3495298 L-8.8817842e-16,6.13043478 C-1.30281268e-15,2.74468914 2.74468914,6.21951384e-16 6.13043478,0 Z"/>
            <rect width="12.261" height="2.144" y="17.154"/>
            <rect width="12.261" height="9.381" y="20.102"/>
          </g>
          <path fill="#FFF" fill-rule="nonzero" d="M5.73958865,36.1833856 L5.05895068,36.1833856 L5.05895068,32.9541807 L6.8251701,32.9541807 C7.19415429,32.9541807 7.49327507,32.576946 7.49327507,32.1116035 C7.49327507,31.646261 7.19415429,31.2690264 6.8251701,31.2690264 L3.39222594,31.2690264 C2.64733317,31.2690264 2.04347826,30.5074779 2.04347826,29.5680602 C2.04347826,28.6286424 2.64733317,27.8670939 3.39222594,27.8670939 L6.77948871,27.8670939 C7.17370203,27.8670939 7.49327507,27.464066 7.49327507,26.9669059 C7.49327507,26.4697458 7.17370203,26.0667179 6.77948871,26.0667179 L3.41506427,26.0667179 C2.65755823,26.0667179 2.04347826,25.2922741 2.04347826,24.3369493 C2.04347826,23.3816244 2.65755823,22.6071806 3.41506427,22.6071806 L6.73157858,22.6071806 C7.15225194,22.6071806 7.49327507,22.177101 7.49327507,21.646571 C7.49327507,21.116041 7.15225194,20.6859614 6.73157858,20.6859614 L5.05895068,20.6859614 L5.05895068,17.4216301 L5.73958865,17.4216301 L5.73958865,19.8275783 L6.73157858,19.8275783 C7.52815791,19.8275783 8.17391304,20.6419691 8.17391304,21.646571 C8.17391304,22.6511729 7.52815791,23.4655637 6.73157858,23.4655637 L3.41506427,23.4655637 C3.0334642,23.4655637 2.72411623,23.8556963 2.72411623,24.3369493 C2.72411623,24.8182022 3.0334642,25.2083348 3.41506427,25.2083348 L6.77948871,25.2083348 C7.54960801,25.2083348 8.17391304,25.9956739 8.17391304,26.9669059 C8.17391304,27.9381379 7.54960801,28.725477 6.77948871,28.725477 L3.39222594,28.725477 C3.02323914,28.725477 2.72411623,29.1027143 2.72411623,29.5680602 C2.72411623,30.033406 3.02323914,30.4106433 3.39222594,30.4106433 L6.8251701,30.4106433 C7.57006026,30.4106433 8.17391304,31.1721891 8.17391304,32.1116035 C8.17391304,33.0510179 7.57006026,33.8125638 6.8251701,33.8125638 L5.73958865,33.8125638 L5.73958865,36.1833856 Z"/>
        </g>
      </g>
      <g fill="#679F00" transform="translate(251 27)">
        <text font-family="GEInspiraSans-Regular, GE Inspira Sans" font-size="12">
          <tspan x="0" y="41.943">ANRPC</tspan>
        </text>
        <path fill-rule="nonzero" d="M7.00186182,25.5025794 L24,25.5142857 L24,9.4 L14.999601,15.3004147 L14.999601,9.4 L6,15.3004147 L6.00255112,24.5018906 C6.00265187,25.0538351 6.449918,25.5013277 7.00186242,25.5017078 Z M26,1 L26,25.5142857 L31,25.5142857 L31,1 C31,0.44771525 30.5522847,-1.01453063e-16 30,0 L27,-1.11022302e-16 C26.4477153,-9.5692398e-18 26,0.44771525 26,1 Z"/>
      </g>
      <g fill="#679F00" transform="translate(253 96)">
        <text font-family="GEInspiraSans-Regular, GE Inspira Sans" font-size="12">
          <tspan x="0" y="43.833">AMOC</tspan>
        </text>
        <path fill-rule="nonzero" d="M5.00186182,25.8492457 L22,25.8611111 L22,9.52777778 L12.999601,15.5083991 L12.999601,9.52777778 L4,15.5083991 L4.00256049,24.8485475 C4.00265988,25.4004893 4.44992071,25.8479819 5.00186243,25.8483672 Z M24,1 L24,25.8611111 L29,25.8611111 L29,1 C29,0.44771525 28.5522847,-1.01453063e-16 28,0 L25,0 C24.4477153,1.01453063e-16 24,0.44771525 24,1 Z"/>
      </g>
      <g fill="#679F00" transform="translate(251 205)">
        <text font-family="GEInspiraSans-Regular, GE Inspira Sans" font-size="12">
          <tspan x="0" y="41.943">ANRPC</tspan>
        </text>
        <path fill-rule="nonzero" d="M7.00186182,25.5025794 L24,25.5142857 L24,9.4 L14.999601,15.3004147 L14.999601,9.4 L6,15.3004147 L6.00255112,24.5018906 C6.00265187,25.0538351 6.449918,25.5013277 7.00186242,25.5017078 Z M26,1 L26,25.5142857 L31,25.5142857 L31,1 C31,0.44771525 30.5522847,-1.01453063e-16 30,0 L27,0 C26.4477153,1.01453063e-16 26,0.44771525 26,1 Z"/>
      </g>
      <g fill="#679F00" transform="translate(253 279)">
        <text font-family="GEInspiraSans-Regular, GE Inspira Sans" font-size="12">
          <tspan x="0" y="43.833">AMOC</tspan>
        </text>
        <path fill-rule="nonzero" d="M5.00186182,25.8492457 L22,25.8611111 L22,9.52777778 L12.999601,15.5083991 L12.999601,9.52777778 L4,15.5083991 L4.00256049,24.8485475 C4.00265988,25.4004893 4.44992071,25.8479819 5.00186243,25.8483672 Z M24,1 L24,25.8611111 L29,25.8611111 L29,1 C29,0.44771525 28.5522847,-1.01453063e-16 28,0 L25,0 C24.4477153,1.01453063e-16 24,0.44771525 24,1 Z"/>
      </g>
      <g fill="#679F00" transform="translate(253 386)">
        <text font-family="GEInspiraSans-Regular, GE Inspira Sans" font-size="12">
          <tspan x="0" y="43.833">ANRPC</tspan>
        </text>
        <path fill-rule="nonzero" d="M5.00186182,25.8492457 L22,25.8611111 L22,9.52777778 L12.999601,15.5083991 L12.999601,9.52777778 L4,15.5083991 L4.00256049,24.8485475 C4.00265988,25.4004893 4.44992071,25.8479819 5.00186243,25.8483672 Z M24,1 L24,25.8611111 L29,25.8611111 L29,1 C29,0.44771525 28.5522847,-1.01453063e-16 28,0 L25,0 C24.4477153,1.01453063e-16 24,0.44771525 24,1 Z"/>
      </g>
      <path stroke="#3E7091" d="M44 68.5L79.0142828 68.5M44 248.5L79.0142828 248.5M44 428.5L79.0142828 428.5"/>
      <g transform="translate(79 5)">
        <g fill="#3F7092" font-family="GEInspiraSans-Regular, GE Inspira Sans" font-size="12" transform="translate(38.948)">
          <text>
            <tspan x="0" y="9.201">Gases</tspan>
          </text>
          <text>
            <tspan x="0" y="32.394">Gasoline</tspan>
          </text>
          <text>
            <tspan x="0" y="54.222">Naphtha</tspan>
          </text>
          <text>
            <tspan x="0" y="77.414">Jet Fuel</tspan>
          </text>
          <text>
            <tspan x="0" y="100.606">Gas oil</tspan>
          </text>
          <text>
            <tspan x="0" y="123.799">Mazot</tspan>
          </text>
        </g>
        <path stroke="#3E7091" d="M0 4.21679688L32.7980269 4.21679688M0 29.3935547L32.7980269 29.3935547M0 52.5859375L32.7980269 52.5859375M0 75.7783203L32.7980269 75.7783203M0 98.9707031L32.7980269 98.9707031M0 122.163086L32.7980269 122.163086"/>
      </g>
      <g transform="translate(79 186)">
        <g fill="#3F7092" font-family="GEInspiraSans-Regular, GE Inspira Sans" font-size="12" transform="translate(37.86)">
          <text>
            <tspan x="0" y="9.12">LPG</tspan>
          </text>
          <text>
            <tspan x="0" y="31.272">Stabilized gasoline</tspan>
          </text>
          <text>
            <tspan x="0" y="53.424">Naphtha</tspan>
          </text>
          <text>
            <tspan x="0" y="75.576">Jet Fuel</tspan>
          </text>
          <text>
            <tspan x="0" y="97.728">Gas oil</tspan>
          </text>
          <text>
            <tspan x="0" y="119.88">Mazot</tspan>
          </text>
        </g>
        <path stroke="#3E7091" d="M0 3.41901167L32.7432191 3.41901167M0 26.3812629L32.7432191 26.3812629M0 49.3435141L32.7432191 49.3435141M0 72.3057653L32.7432191 72.3057653M0 95.2680165L32.7432191 95.2680165M0 118.230268L32.7432191 118.230268"/>
      </g>
      <g transform="translate(79 366)">
        <g fill="#3F7092" font-family="GEInspiraSans-Regular, GE Inspira Sans" font-size="12" transform="translate(38.948)">
          <text>
            <tspan x="0" y="9.161">Gases</tspan>
          </text>
          <text>
            <tspan x="0" y="31.697">Gasoline</tspan>
          </text>
          <text>
            <tspan x="0" y="54.232">Naphtha</tspan>
          </text>
          <text>
            <tspan x="0" y="76.768">Turbine</tspan>
          </text>
          <text>
            <tspan x="0" y="99.303">Gas oil</tspan>
          </text>
          <text>
            <tspan x="0" y="121.839">Mazot</tspan>
          </text>
        </g>
        <path stroke="#3E7091" d="M0 2.81954887L32.7980269 2.81954887M0 27.8822055L32.7980269 27.8822055M0 50.9607352L32.7980269 50.9607352M0 74.0392648L32.7980269 74.0392648M0 97.1177945L32.7980269 97.1177945M0 120.196324L32.7980269 120.196324"/>
      </g>
      <path stroke="#3E7091" d="M79 9L79 127M79 189L79 307M79 369L79 487"/>
      <path stroke="#3E7091" stroke-dasharray="2 2" d="M168 9L187 9 187 32 168 32M168 369L187 369 187 392 168 392"/>
      <g transform="translate(446)">
        <rect width="54" height="41" fill="#679F00" rx="2"/>
        <text fill="#FFF" font-family="GEInspiraSans-Regular, GE Inspira Sans" font-size="12">
          <tspan x="16.302" y="23.5">VRU</tspan>
        </text>
      </g>
      <g transform="translate(361 76)">
        <rect width="90" height="68" fill="#679F00" rx="2"/>
        <text fill="#FFF" font-family="GEInspiraSans-Regular, GE Inspira Sans" font-size="12">
          <tspan x="10.227" y="25">E-lab, Hexane </tspan> <tspan x="10.227" y="37">and Kerosene </tspan> <tspan x="10.227" y="49">Complex</tspan>
        </text>
      </g>
      <g transform="translate(361 163)">
        <rect width="90" height="68" fill="#679F00" rx="2"/>
        <text fill="#FFF" font-family="GEInspiraSans-Regular, GE Inspira Sans" font-size="12">
          <tspan x="11.489" y="25">Solvent </tspan> <tspan x="11.489" y="37">Production </tspan> <tspan x="11.489" y="49">Complex</tspan>
        </text>
      </g>
      <g transform="translate(362 433)">
        <rect width="90" height="68" fill="#679F00" rx="2"/>
        <text fill="#FFF" font-family="GEInspiraSans-Regular, GE Inspira Sans" font-size="12">
          <tspan x="11.489" y="31.01">Spent oil </tspan> <tspan x="11.489" y="43.01">re-refining </tspan> <tspan x="11.489" y="55.01">unit</tspan>
        </text>
      </g>
      <path stroke="#3E7091" d="M168,56.5 L246.49359,56.5"/>
      <polyline stroke="#3E7091" points="219 214 246.305 214 246.305 197 357 197"/>
      <path stroke="#3E7091" d="M167 237.5L246.493671 237.5M458 466.5L517.491525 466.5M155.509576 303.333333L247.932134 303.333333M155.509576 123.333333L247.932134 123.333333M169.491585 417.333333L246.932731 417.333333M403.485283 382L403.485283 423.412637"/>
      <path stroke="#3E7091" stroke-dasharray="2 2" d="M187 20.5L435.487654 20.5M187 381.666667L472.489286 381.666667M166 440.5L326.494633 440.5M326 440.319549L326 79.679539M473 382.318182L473 53.6818182M168 80.5L325.487848 80.5M326 113.5L353.720138 113.5M166 260.5L326.494633 260.5"/>
      <text fill="#3F7092" font-family="GEInspiraSans-Regular, GE Inspira Sans" font-size="12">
        <tspan x="355" y="408">Spent oil</tspan>
      </text>
      <text fill="#3F7092" font-family="GEInspiraSans-Regular, GE Inspira Sans" font-size="12">
        <tspan x="458" y="458">Neutral oil</tspan>
      </text>
      <polygon fill="#3E7091" points="354 109 357 115 351 115" transform="rotate(90 354 112)"/>
      <polygon fill="#3E7091" points="249 414 252 420 246 420" transform="rotate(90 249 417)"/>
      <polygon fill="#3E7091" points="518 463 521 469 515 469" transform="rotate(90 518 466)"/>
      <polygon fill="#3E7091" points="473 49 476 55 470 55"/>
      <polygon fill="#3E7091" points="404 422 407 428 401 428" transform="matrix(1 0 0 -1 0 850)"/>
      <polygon fill="#3E7091" points="249 299 252 305 246 305" transform="rotate(90 249 302)"/>
      <polygon fill="#3E7091" points="249 121 252 127 246 127" transform="rotate(90 249 124)"/>
      <polygon fill="#3E7091" points="249 54 252 60 246 60" transform="rotate(90 249 57)"/>
      <polygon fill="#3E7091" points="249 234 252 240 246 240" transform="rotate(90 249 237)"/>
      <polygon fill="#3E7091" points="354 193 357 199 351 199" transform="rotate(90 354 196)"/>
      <polygon fill="#3E7091" points="436 17 439 23 433 23" transform="rotate(90 436 20)"/>
    </g>
    <g transform="translate(31 66)">
      <rect width="19" height="14" x="2" y="12" fill="#5ABEF6"/>
      <path fill="#679F00" d="M1,5.34210526 L21,5.34210526 C21.5522847,5.34210526 22,5.78982051 22,6.34210526 L22,27 C22,27.5522847 21.5522847,28 21,28 L1,28 C0.44771525,28 2.02974496e-15,27.5522847 0,27 L0,6.34210526 C-6.76353751e-17,5.78982051 0.44771525,5.34210526 1,5.34210526 Z M1.98360656,7.73684211 L1.98360656,25.9736842 L20.0163934,25.9736842 L20.0163934,18.4763158 L20.0163934,7.73684211 L1.98360656,7.73684211 Z M0,0 L22,0 L22,2.02631579 L0,2.02631579 L0,0 Z"/>
    </g>
    <g transform="translate(31 246)">
      <rect width="19" height="4" x="2" y="22" fill="#5ABEF6"/>
      <path fill="#679F00" d="M1,5.34210526 L21,5.34210526 C21.5522847,5.34210526 22,5.78982051 22,6.34210526 L22,27 C22,27.5522847 21.5522847,28 21,28 L1,28 C0.44771525,28 2.02974496e-15,27.5522847 0,27 L0,6.34210526 C-6.76353751e-17,5.78982051 0.44771525,5.34210526 1,5.34210526 Z M1.98360656,7.73684211 L1.98360656,25.9736842 L20.0163934,25.9736842 L20.0163934,18.4763158 L20.0163934,7.73684211 L1.98360656,7.73684211 Z M0,0 L22,0 L22,2.02631579 L0,2.02631579 L0,0 Z"/>
    </g>
    <g transform="translate(31 432)">
      <rect width="19" height="9" x="2" y="17" fill="#5ABEF6"/>
      <path fill="#679F00" d="M1,5.34210526 L21,5.34210526 C21.5522847,5.34210526 22,5.78982051 22,6.34210526 L22,27 C22,27.5522847 21.5522847,28 21,28 L1,28 C0.44771525,28 2.02974496e-15,27.5522847 0,27 L0,6.34210526 C-6.76353751e-17,5.78982051 0.44771525,5.34210526 1,5.34210526 Z M1.98360656,7.73684211 L1.98360656,25.9736842 L20.0163934,25.9736842 L20.0163934,18.4763158 L20.0163934,7.73684211 L1.98360656,7.73684211 Z M0,0 L22,0 L22,2.02631579 L0,2.02631579 L0,0 Z"/>
    </g>
  </g>
</svg>
