<svg xmlns="http://www.w3.org/2000/svg" width="518" height="478" viewBox="0 0 518 478">
  <g fill="none" fill-rule="evenodd" transform="translate(-8)">
    <g transform="translate(0 37)">
      <text fill="#679F00" font-family="GEInspiraSans-Regular, GE Inspira Sans" font-size="12">
        <tspan x="7.75" y="52.227">CDU 2</tspan>
      </text>
      <g transform="translate(11.24)">
        <path fill="#679F00" fill-rule="nonzero" d="M6.32290968,12.9545455 L5.10869565,12.9545455 L5.10869565,10.4273536 C5.10869565,9.23173087 5.83352517,8.26248718 6.72764768,8.26248718 L8.15734642,8.26248718 C8.38087705,8.26248718 8.56208443,8.02017626 8.56208443,7.72127054 L8.56208464,2.16486927 C8.56208464,0.969246754 9.28691395,3.13296268e-06 10.1810363,2.88409526e-06 L16.772352,0 C17.6664745,-2.48866922e-07 18.3913042,0.969243243 18.3913043,2.16486665 L18.3913031,4.58343455 L17.1770891,4.58343345 L17.1770903,2.16486627 C17.1770903,1.8659606 16.9958829,1.62364972 16.7723523,1.62364979 L10.1810366,1.62365267 C9.95750599,1.62365273 9.77629866,1.86596364 9.77629866,2.16486931 L9.77629845,7.72127058 C9.77629845,8.91689327 9.05146894,9.88613697 8.15734642,9.88613697 L6.72764768,9.88613697 C6.50411705,9.88613697 6.32290968,10.1284479 6.32290968,10.4273536 L6.32290968,12.9545455 Z"/>
        <path fill="#679F00" d="M1.11581384,18.3513277 C1.54578937,16.7498406 3.3988134,15.5454545 5.61956522,15.5454545 C7.84031703,15.5454545 9.69334107,16.7498406 10.1233166,18.3513277 L10.2173913,18.3513277 L10.2173913,34.9772727 L1.02173913,34.9772727 L1.02173913,18.3513277 L1.11581384,18.3513277 Z"/>
        <rect width="3.065" height="1.295" x="4.087" y="12.955" fill="#679F00" rx=".648"/>
        <rect width="3.065" height="1.295" x="16.348" y="5.182" fill="#679F00" rx=".648"/>
        <rect width="11.239" height="2.591" y="33.682" fill="#679F00" rx="1.295"/>
        <g fill="#679F00" transform="translate(12.26 7.773)">
          <path d="M6.13043478,0 L6.13043478,0 C9.51618042,-6.21951384e-16 12.2608696,2.74468914 12.2608696,6.13043478 L12.2608696,15.8032016 L0,15.8045455 L0,6.13043478 C-4.14634256e-16,2.74468914 2.74468914,6.21951384e-16 6.13043478,0 Z"/>
          <rect width="12.261" height="2.073" y="16.582"/>
          <rect width="12.261" height="9.068" y="19.432"/>
        </g>
        <path fill="#FFF" fill-rule="nonzero" d="M5.73958865,34.9772727 L5.05895068,34.9772727 L5.05895068,31.855708 L6.8251701,31.855708 C7.19415429,31.855708 7.49327507,31.4910478 7.49327507,31.0412167 C7.49327507,30.5913856 7.19415429,30.2267255 6.8251701,30.2267255 L3.39222594,30.2267255 C2.64733317,30.2267255 2.04347826,29.4905619 2.04347826,28.5824581 C2.04347826,27.6743544 2.64733317,26.9381908 3.39222594,26.9381908 L6.77948871,26.9381908 C7.17370203,26.9381908 7.49327507,26.5485972 7.49327507,26.0680091 C7.49327507,25.587421 7.17370203,25.1978273 6.77948871,25.1978273 L3.41506427,25.1978273 C2.65755823,25.1978273 2.04347826,24.4491983 2.04347826,23.5257176 C2.04347826,22.6022369 2.65755823,21.8536079 3.41506427,21.8536079 L6.73157858,21.8536079 C7.15225194,21.8536079 7.49327507,21.4378643 7.49327507,20.9250186 C7.49327507,20.4121729 7.15225194,19.9964293 6.73157858,19.9964293 L5.05895068,19.9964293 L5.05895068,16.8409091 L5.73958865,16.8409091 L5.73958865,19.166659 L6.73157858,19.166659 C7.52815791,19.166659 8.17391304,19.9539034 8.17391304,20.9250186 C8.17391304,21.8961338 7.52815791,22.6833782 6.73157858,22.6833782 L3.41506427,22.6833782 C3.0334642,22.6833782 2.72411623,23.0605064 2.72411623,23.5257176 C2.72411623,23.9909288 3.0334642,24.368057 3.41506427,24.368057 L6.77948871,24.368057 C7.54960801,24.368057 8.17391304,25.1291515 8.17391304,26.0680091 C8.17391304,27.0068667 7.54960801,27.7679611 6.77948871,27.7679611 L3.39222594,27.7679611 C3.02323914,27.7679611 2.72411623,28.1326239 2.72411623,28.5824581 C2.72411623,29.0322924 3.02323914,29.3969552 3.39222594,29.3969552 L6.8251701,29.3969552 C7.57006026,29.3969552 8.17391304,30.1331162 8.17391304,31.0412167 C8.17391304,31.9493173 7.57006026,32.6854783 6.8251701,32.6854783 L5.73958865,32.6854783 L5.73958865,34.9772727 Z"/>
      </g>
    </g>
    <g transform="translate(0 208)">
      <text fill="#679F00" font-family="GEInspiraSans-Regular, GE Inspira Sans" font-size="12">
        <tspan x="7.75" y="52.227">CDU 3</tspan>
      </text>
      <g transform="translate(11.24)">
        <path fill="#679F00" fill-rule="nonzero" d="M6.32290968,12.9545455 L5.10869565,12.9545455 L5.10869565,10.4273536 C5.10869565,9.23173087 5.83352517,8.26248718 6.72764768,8.26248718 L8.15734642,8.26248718 C8.38087705,8.26248718 8.56208443,8.02017626 8.56208443,7.72127054 L8.56208464,2.16486927 C8.56208464,0.969246754 9.28691395,3.13296268e-06 10.1810363,2.88409526e-06 L16.772352,0 C17.6664745,-2.48866922e-07 18.3913042,0.969243243 18.3913043,2.16486665 L18.3913031,4.58343455 L17.1770891,4.58343345 L17.1770903,2.16486627 C17.1770903,1.8659606 16.9958829,1.62364972 16.7723523,1.62364979 L10.1810366,1.62365267 C9.95750599,1.62365273 9.77629866,1.86596364 9.77629866,2.16486931 L9.77629845,7.72127058 C9.77629845,8.91689327 9.05146894,9.88613697 8.15734642,9.88613697 L6.72764768,9.88613697 C6.50411705,9.88613697 6.32290968,10.1284479 6.32290968,10.4273536 L6.32290968,12.9545455 Z"/>
        <path fill="#679F00" d="M1.11581384,18.3513277 C1.54578937,16.7498406 3.3988134,15.5454545 5.61956522,15.5454545 C7.84031703,15.5454545 9.69334107,16.7498406 10.1233166,18.3513277 L10.2173913,18.3513277 L10.2173913,34.9772727 L1.02173913,34.9772727 L1.02173913,18.3513277 L1.11581384,18.3513277 Z"/>
        <rect width="3.065" height="1.295" x="4.087" y="12.955" fill="#679F00" rx=".648"/>
        <rect width="3.065" height="1.295" x="16.348" y="5.182" fill="#679F00" rx=".648"/>
        <rect width="11.239" height="2.591" y="33.682" fill="#679F00" rx="1.295"/>
        <g fill="#679F00" transform="translate(12.26 7.773)">
          <path d="M6.13043478,0 L6.13043478,0 C9.51618042,-6.21951384e-16 12.2608696,2.74468914 12.2608696,6.13043478 L12.2608696,15.8032016 L0,15.8045455 L0,6.13043478 C-4.14634256e-16,2.74468914 2.74468914,6.21951384e-16 6.13043478,0 Z"/>
          <rect width="12.261" height="2.073" y="16.582"/>
          <rect width="12.261" height="9.068" y="19.432"/>
        </g>
        <path fill="#FFF" fill-rule="nonzero" d="M5.73958865,34.9772727 L5.05895068,34.9772727 L5.05895068,31.855708 L6.8251701,31.855708 C7.19415429,31.855708 7.49327507,31.4910478 7.49327507,31.0412167 C7.49327507,30.5913856 7.19415429,30.2267255 6.8251701,30.2267255 L3.39222594,30.2267255 C2.64733317,30.2267255 2.04347826,29.4905619 2.04347826,28.5824581 C2.04347826,27.6743544 2.64733317,26.9381908 3.39222594,26.9381908 L6.77948871,26.9381908 C7.17370203,26.9381908 7.49327507,26.5485972 7.49327507,26.0680091 C7.49327507,25.587421 7.17370203,25.1978273 6.77948871,25.1978273 L3.41506427,25.1978273 C2.65755823,25.1978273 2.04347826,24.4491983 2.04347826,23.5257176 C2.04347826,22.6022369 2.65755823,21.8536079 3.41506427,21.8536079 L6.73157858,21.8536079 C7.15225194,21.8536079 7.49327507,21.4378643 7.49327507,20.9250186 C7.49327507,20.4121729 7.15225194,19.9964293 6.73157858,19.9964293 L5.05895068,19.9964293 L5.05895068,16.8409091 L5.73958865,16.8409091 L5.73958865,19.166659 L6.73157858,19.166659 C7.52815791,19.166659 8.17391304,19.9539034 8.17391304,20.9250186 C8.17391304,21.8961338 7.52815791,22.6833782 6.73157858,22.6833782 L3.41506427,22.6833782 C3.0334642,22.6833782 2.72411623,23.0605064 2.72411623,23.5257176 C2.72411623,23.9909288 3.0334642,24.368057 3.41506427,24.368057 L6.77948871,24.368057 C7.54960801,24.368057 8.17391304,25.1291515 8.17391304,26.0680091 C8.17391304,27.0068667 7.54960801,27.7679611 6.77948871,27.7679611 L3.39222594,27.7679611 C3.02323914,27.7679611 2.72411623,28.1326239 2.72411623,28.5824581 C2.72411623,29.0322924 3.02323914,29.3969552 3.39222594,29.3969552 L6.8251701,29.3969552 C7.57006026,29.3969552 8.17391304,30.1331162 8.17391304,31.0412167 C8.17391304,31.9493173 7.57006026,32.6854783 6.8251701,32.6854783 L5.73958865,32.6854783 L5.73958865,34.9772727 Z"/>
      </g>
    </g>
    <g transform="translate(0 384)">
      <text fill="#679F00" font-family="GEInspiraSans-Regular, GE Inspira Sans" font-size="12">
        <tspan x="7.75" y="52.227">CDU 4</tspan>
      </text>
      <g transform="translate(11.24)">
        <path fill="#679F00" fill-rule="nonzero" d="M6.32290968,12.9545455 L5.10869565,12.9545455 L5.10869565,10.4273536 C5.10869565,9.23173087 5.83352517,8.26248718 6.72764768,8.26248718 L8.15734642,8.26248718 C8.38087705,8.26248718 8.56208443,8.02017626 8.56208443,7.72127054 L8.56208464,2.16486927 C8.56208464,0.969246754 9.28691395,3.13296268e-06 10.1810363,2.88409526e-06 L16.772352,0 C17.6664745,-2.48866922e-07 18.3913042,0.969243243 18.3913043,2.16486665 L18.3913031,4.58343455 L17.1770891,4.58343345 L17.1770903,2.16486627 C17.1770903,1.8659606 16.9958829,1.62364972 16.7723523,1.62364979 L10.1810366,1.62365267 C9.95750599,1.62365273 9.77629866,1.86596364 9.77629866,2.16486931 L9.77629845,7.72127058 C9.77629845,8.91689327 9.05146894,9.88613697 8.15734642,9.88613697 L6.72764768,9.88613697 C6.50411705,9.88613697 6.32290968,10.1284479 6.32290968,10.4273536 L6.32290968,12.9545455 Z"/>
        <path fill="#679F00" d="M1.11581384,18.3513277 C1.54578937,16.7498406 3.3988134,15.5454545 5.61956522,15.5454545 C7.84031703,15.5454545 9.69334107,16.7498406 10.1233166,18.3513277 L10.2173913,18.3513277 L10.2173913,34.9772727 L1.02173913,34.9772727 L1.02173913,18.3513277 L1.11581384,18.3513277 Z"/>
        <rect width="3.065" height="1.295" x="4.087" y="12.955" fill="#679F00" rx=".648"/>
        <rect width="3.065" height="1.295" x="16.348" y="5.182" fill="#679F00" rx=".648"/>
        <rect width="11.239" height="2.591" y="33.682" fill="#679F00" rx="1.295"/>
        <g fill="#679F00" transform="translate(12.26 7.773)">
          <path d="M6.13043478,0 L6.13043478,0 C9.51618042,-6.21951384e-16 12.2608696,2.74468914 12.2608696,6.13043478 L12.2608696,15.8032016 L0,15.8045455 L0,6.13043478 C-4.14634256e-16,2.74468914 2.74468914,6.21951384e-16 6.13043478,0 Z"/>
          <rect width="12.261" height="2.073" y="16.582"/>
          <rect width="12.261" height="9.068" y="19.432"/>
        </g>
        <path fill="#FFF" fill-rule="nonzero" d="M5.73958865,34.9772727 L5.05895068,34.9772727 L5.05895068,31.855708 L6.8251701,31.855708 C7.19415429,31.855708 7.49327507,31.4910478 7.49327507,31.0412167 C7.49327507,30.5913856 7.19415429,30.2267255 6.8251701,30.2267255 L3.39222594,30.2267255 C2.64733317,30.2267255 2.04347826,29.4905619 2.04347826,28.5824581 C2.04347826,27.6743544 2.64733317,26.9381908 3.39222594,26.9381908 L6.77948871,26.9381908 C7.17370203,26.9381908 7.49327507,26.5485972 7.49327507,26.0680091 C7.49327507,25.587421 7.17370203,25.1978273 6.77948871,25.1978273 L3.41506427,25.1978273 C2.65755823,25.1978273 2.04347826,24.4491983 2.04347826,23.5257176 C2.04347826,22.6022369 2.65755823,21.8536079 3.41506427,21.8536079 L6.73157858,21.8536079 C7.15225194,21.8536079 7.49327507,21.4378643 7.49327507,20.9250186 C7.49327507,20.4121729 7.15225194,19.9964293 6.73157858,19.9964293 L5.05895068,19.9964293 L5.05895068,16.8409091 L5.73958865,16.8409091 L5.73958865,19.166659 L6.73157858,19.166659 C7.52815791,19.166659 8.17391304,19.9539034 8.17391304,20.9250186 C8.17391304,21.8961338 7.52815791,22.6833782 6.73157858,22.6833782 L3.41506427,22.6833782 C3.0334642,22.6833782 2.72411623,23.0605064 2.72411623,23.5257176 C2.72411623,23.9909288 3.0334642,24.368057 3.41506427,24.368057 L6.77948871,24.368057 C7.54960801,24.368057 8.17391304,25.1291515 8.17391304,26.0680091 C8.17391304,27.0068667 7.54960801,27.7679611 6.77948871,27.7679611 L3.39222594,27.7679611 C3.02323914,27.7679611 2.72411623,28.1326239 2.72411623,28.5824581 C2.72411623,29.0322924 3.02323914,29.3969552 3.39222594,29.3969552 L6.8251701,29.3969552 C7.57006026,29.3969552 8.17391304,30.1331162 8.17391304,31.0412167 C8.17391304,31.9493173 7.57006026,32.6854783 6.8251701,32.6854783 L5.73958865,32.6854783 L5.73958865,34.9772727 Z"/>
      </g>
    </g>
    <g fill="#679F00" transform="translate(253 27)">
      <text font-family="GEInspiraSans-Regular, GE Inspira Sans" font-size="12">
        <tspan x="0" y="41.218">ANRPC</tspan>
      </text>
      <path fill-rule="nonzero" d="M7.16858023,25.0277791 L24.6666667,25.0392857 L24.6666667,9.225 L15.4162566,15.0155666 L15.4162566,9.225 L6.16666667,15.0155666 L6.1692384,24.0271213 C6.16934391,24.5790746 6.61662759,25.026567 7.16858079,25.02693 Z M26.7222222,1 L26.7222222,25.0392857 L31.8611111,25.0392857 L31.8611111,1 C31.8611111,0.44771525 31.4133959,-1.01453063e-16 30.8611111,0 L27.7222222,0 C27.1699375,1.01453063e-16 26.7222222,0.44771525 26.7222222,1 Z"/>
    </g>
    <g fill="#679F00" transform="translate(255 91)">
      <text font-family="GEInspiraSans-Regular, GE Inspira Sans" font-size="12">
        <tspan x="0" y="42.268">AMOC</tspan>
      </text>
      <path fill-rule="nonzero" d="M5.12313039,24.8584883 L22.6666667,24.8699187 L22.6666667,9.16260163 L13.3935283,14.9140005 L13.3935283,9.16260163 L4.12121212,14.9140005 L4.12378251,23.8578366 C4.123889,24.4097916 4.57117607,24.8572838 5.12313095,24.8576435 Z M24.7272727,1 L24.7272727,24.8699187 L29.8787879,24.8699187 L29.8787879,1 C29.8787879,0.44771525 29.4310726,-1.01453063e-16 28.8787879,0 L25.7272727,-2.22044605e-16 C25.174988,-1.20591542e-16 24.7272727,0.44771525 24.7272727,1 Z"/>
    </g>
    <g fill="#679F00" transform="translate(253 195)">
      <text font-family="GEInspiraSans-Regular, GE Inspira Sans" font-size="12">
        <tspan x="0" y="41.218">ANRPC</tspan>
      </text>
      <path fill-rule="nonzero" d="M7.16858023,25.0277791 L24.6666667,25.0392857 L24.6666667,9.225 L15.4162566,15.0155666 L15.4162566,9.225 L6.16666667,15.0155666 L6.1692384,24.0271213 C6.16934391,24.5790746 6.61662759,25.026567 7.16858079,25.02693 Z M26.7222222,1 L26.7222222,25.0392857 L31.8611111,25.0392857 L31.8611111,1 C31.8611111,0.44771525 31.4133959,-1.01453063e-16 30.8611111,0 L27.7222222,0 C27.1699375,1.01453063e-16 26.7222222,0.44771525 26.7222222,1 Z"/>
    </g>
    <g fill="#679F00" transform="translate(255 265)">
      <text font-family="GEInspiraSans-Regular, GE Inspira Sans" font-size="12">
        <tspan x="0" y="42.268">AMOC</tspan>
      </text>
      <path fill-rule="nonzero" d="M5.12313039,24.8584883 L22.6666667,24.8699187 L22.6666667,9.16260163 L13.3935283,14.9140005 L13.3935283,9.16260163 L4.12121212,14.9140005 L4.12378251,23.8578366 C4.123889,24.4097916 4.57117607,24.8572838 5.12313095,24.8576435 Z M24.7272727,1 L24.7272727,24.8699187 L29.8787879,24.8699187 L29.8787879,1 C29.8787879,0.44771525 29.4310726,-1.01453063e-16 28.8787879,0 L25.7272727,-2.22044605e-16 C25.174988,-1.20591542e-16 24.7272727,0.44771525 24.7272727,1 Z"/>
    </g>
    <g fill="#679F00" transform="translate(255 368)">
      <text font-family="GEInspiraSans-Regular, GE Inspira Sans" font-size="12">
        <tspan x="0" y="42.268">ANRPC</tspan>
      </text>
      <path fill-rule="nonzero" d="M5.11302468,24.8584899 L22.6111111,24.8699187 L22.6111111,9.16260163 L13.360701,14.9140005 L13.360701,9.16260163 L4.11111111,14.9140005 L4.1136784,23.8578366 C4.11378463,24.4097911 4.5610708,24.8572834 5.11302523,24.8576439 Z M24.6666667,1 L24.6666667,24.8699187 L29.8055556,24.8699187 L29.8055556,1 C29.8055556,0.44771525 29.3578403,-1.01453063e-16 28.8055556,0 L25.6666667,-2.22044605e-16 C25.1143819,-1.20591542e-16 24.6666667,0.44771525 24.6666667,1 Z"/>
    </g>
    <path stroke="#3E7091" d="M44 65.5L79.9869018 65.5M44 236.5L79.9869018 236.5M44 409.5L79.9869018 409.5"/>
    <g transform="translate(80 3)">
      <g fill="#3F7092" font-family="GEInspiraSans-Regular, GE Inspira Sans" font-size="12" transform="translate(38.927)">
        <text>
          <tspan x="0" y="9.709">Gases</tspan>
        </text>
        <text>
          <tspan x="0" y="31.886">Gasoline</tspan>
        </text>
        <text>
          <tspan x="0" y="52.759">Naphtha</tspan>
        </text>
        <text>
          <tspan x="0" y="74.936">Jet Fuel</tspan>
        </text>
        <text>
          <tspan x="0" y="97.114">Gas oil</tspan>
        </text>
        <text>
          <tspan x="0" y="119.291">Mazot</tspan>
        </text>
      </g>
      <path stroke="#3E7091" d="M0 6.70909091L32.7804878 6.70909091M0 28.8863636L32.7804878 28.8863636M0 51.0636364L32.7804878 51.0636364M0 73.2409091L32.7804878 73.2409091M0 95.4181818L32.7804878 95.4181818M0 117.595455L32.7804878 117.595455"/>
    </g>
    <g transform="translate(80 177)">
      <g fill="#3F7092" font-family="GEInspiraSans-Regular, GE Inspira Sans" font-size="12" transform="translate(38.13)">
        <text>
          <tspan x="0" y="9.69">LPG</tspan>
        </text>
        <text>
          <tspan x="0" y="31.014">Stabilized gasoline</tspan>
        </text>
        <text>
          <tspan x="0" y="52.338">Naphtha</tspan>
        </text>
        <text>
          <tspan x="0" y="73.662">Jet Fuel</tspan>
        </text>
        <text>
          <tspan x="0" y="94.986">Gas oil</tspan>
        </text>
        <text>
          <tspan x="0" y="116.31">Mazot</tspan>
        </text>
      </g>
      <path stroke="#3E7091" d="M0 4.08983452L32.9770992 4.08983452M0 26.1938534L32.9770992 26.1938534M0 48.2978723L32.9770992 48.2978723M0 70.4018913L32.9770992 70.4018913M0 92.5059102L32.9770992 92.5059102M0 114.609929L32.9770992 114.609929"/>
    </g>
    <g transform="translate(80 349)">
      <g fill="#3F7092" font-family="GEInspiraSans-Regular, GE Inspira Sans" font-size="12" transform="translate(38.927)">
        <text>
          <tspan x="0" y="9.672">Gases</tspan>
        </text>
        <text>
          <tspan x="0" y="31.203">Gasoline</tspan>
        </text>
        <text>
          <tspan x="0" y="52.734">Naphtha</tspan>
        </text>
        <text>
          <tspan x="0" y="74.266">Turbine</tspan>
        </text>
        <text>
          <tspan x="0" y="95.797">Gas oil</tspan>
        </text>
        <text>
          <tspan x="0" y="117.328">Mazot</tspan>
        </text>
      </g>
      <path stroke="#3E7091" d="M0 5.37518107L32.7804878 5.37518107M0 27.4251086L32.7804878 27.4251086M0 49.4750362L32.7804878 49.4750362M0 71.5249638L32.7804878 71.5249638M0 93.5748914L32.7804878 93.5748914M0 115.624819L32.7804878 115.624819"/>
    </g>
    <path stroke="#3E7091" d="M80 9L80 122M80 181L80 294M80 353L80 466"/>
    <path stroke="#3E7091" stroke-dasharray="2 2" d="M170 9L189 9 189 30 170 30M170 353L189 353 189 374 170 374"/>
    <g transform="translate(450)">
      <rect width="55" height="39" fill="#679F00" rx="2"/>
      <text fill="#FFF" font-family="GEInspiraSans-Regular, GE Inspira Sans" font-size="12">
        <tspan x="16.604" y="22.5">VRU</tspan>
      </text>
    </g>
    <g transform="translate(364 74)">
      <rect width="91" height="65" fill="#679F00" rx="2"/>
      <text fill="#FFF" font-family="GEInspiraSans-Regular, GE Inspira Sans" font-size="12">
        <tspan x="10.341" y="23.5">E-lab, Hexane </tspan> <tspan x="10.341" y="35.5">and Kerosene </tspan> <tspan x="10.341" y="47.5">Complex</tspan>
      </text>
    </g>
    <g transform="translate(364 156)">
      <rect width="91" height="65" fill="#679F00" rx="2"/>
      <text fill="#FFF" font-family="GEInspiraSans-Regular, GE Inspira Sans" font-size="12">
        <tspan x="11.375" y="23.5">Solvent </tspan> <tspan x="11.375" y="35.5">Production </tspan> <tspan x="11.375" y="47.5">Complex</tspan>
      </text>
    </g>
    <g transform="translate(365 413)">
      <rect width="91" height="65" fill="#679F00" rx="2"/>
      <text fill="#FFF" font-family="GEInspiraSans-Regular, GE Inspira Sans" font-size="12">
        <tspan x="11.375" y="23.5">Spent oil </tspan> <tspan x="11.375" y="35.5">re-refining </tspan> <tspan x="11.375" y="47.5">unit</tspan>
      </text>
    </g>
    <path stroke="#3E7091" d="M170,54 L249.487179,54"/>
    <polyline stroke="#3E7091" points="220 205 247.503 205 247.503 188 359 188"/>
    <path stroke="#3E7091" d="M169 226L249.487342 226M461 444L521.483051 444M156.515056 290L249.931404 290M156.515056 119L249.931404 119M171.497888 398L249.931868 398M406.485283 362.5L406.485283 403.440606"/>
    <path stroke="#3E7091" stroke-dasharray="2 2" d="M188 19L437.485597 19M188 362L475.485714 362M168 421L329.491494 421M328 422.347744L328 76.6513813M477 363.349174L477 49.6508264M170 77L328.484607 77M328 106L355.720138 106M168 248L329.491494 248"/>
    <text fill="#3F7092" font-family="GEInspiraSans-Regular, GE Inspira Sans" font-size="12">
      <tspan x="357" y="390">Spent oil</tspan>
    </text>
    <text fill="#3F7092" font-family="GEInspiraSans-Regular, GE Inspira Sans" font-size="12">
      <tspan x="461" y="436">Neutral oil</tspan>
    </text>
    <polygon fill="#3E7091" points="359.5 103 363 110 356 110" transform="rotate(90 359.5 106.5)"/>
    <polygon fill="#3E7091" points="251.5 394 255 401 248 401" transform="rotate(90 251.5 397.5)"/>
    <polygon fill="#3E7091" points="522.5 441 526 448 519 448" transform="rotate(90 522.5 444.5)"/>
    <polygon fill="#3E7091" points="476.5 47 480 54 473 54"/>
    <polygon fill="#3E7091" points="406.5 402 410 409 403 409" transform="matrix(1 0 0 -1 0 811)"/>
    <polygon fill="#3E7091" points="251.5 287 255 294 248 294" transform="rotate(90 251.5 290.5)"/>
    <polygon fill="#3E7091" points="251.5 116 255 123 248 123" transform="rotate(90 251.5 119.5)"/>
    <polygon fill="#3E7091" points="251.5 51 255 58 248 58" transform="rotate(90 251.5 54.5)"/>
    <polygon fill="#3E7091" points="251.5 222 255 229 248 229" transform="rotate(90 251.5 225.5)"/>
    <polygon fill="#3E7091" points="359.5 185 363 192 356 192" transform="rotate(90 359.5 188.5)"/>
    <polygon fill="#3E7091" points="439.5 16 443 23 436 23" transform="rotate(90 439.5 19.5)"/>
  </g>
</svg>
