<?xml version="1.0" encoding="UTF-8"?>
<svg width="14px" height="19px" viewBox="0 0 14 19" version="1.1" xmlns="http://www.w3.org/2000/svg" xmlns:xlink="http://www.w3.org/1999/xlink">
    <!-- Generator: Sketch 49.3 (51167) - http://www.bohemiancoding.com/sketch -->
    <title>Group 10</title>
    <desc>Created with Sketch.</desc>
    <defs></defs>
    <g id="MOP" stroke="none" stroke-width="1" fill="none" fill-rule="evenodd">
        <g id="2a.-MOP-WD-Production" transform="translate(-1225.000000, -68.000000)">
            <g id="Group-9" transform="translate(0.000000, 61.000000)">
                <g id="Group-21" transform="translate(1208.000000, 7.000000)">
                    <g id="Group-10" transform="translate(17.000000, 0.000000)">
                        <path d="M7.91304348,0 L14,5.9375 L14,17.8125 C14,18.146486 13.8827004,18.427896 13.6480978,18.6567383 C13.4134952,18.8855806 13.1250017,19 12.7826087,19 L1.2173913,19 C0.874998288,19 0.586504796,18.8855806 0.351902174,18.6567383 C0.117299552,18.427896 0,18.146486 0,17.8125 L0,1.1875 C0,0.853513955 0.117299552,0.572104009 0.351902174,0.343261719 C0.586504796,0.114419429 0.874998288,0 1.2173913,0 L7.91304348,0 Z M12.7826087,6.43847656 L7.41847826,1.1875 L7.30434783,1.1875 L7.30434783,6.53125 L12.7826087,6.53125 L12.7826087,6.43847656 Z M1.2173913,17.8125 L12.7826087,17.8125 L12.7826087,7.71875 L6.08695652,7.71875 L6.08695652,1.1875 L1.2173913,1.1875 L1.2173913,17.8125 Z" id="Doc---simple-line-icons" fill="#FFFFFF"></path>
                        <path d="M3.44444444,10.5 L10.5555556,10.5" id="Line-8" stroke="#FFFFFF" stroke-linecap="square"></path>
                        <path d="M3.44444444,12.5 L10.5555556,12.5" id="Line-8-Copy" stroke="#FFFFFF" stroke-linecap="square"></path>
                        <path d="M3.44444444,14.5 L10.5555556,14.5" id="Line-8-Copy-2" stroke="#FFFFFF" stroke-linecap="square"></path>
                    </g>
                </g>
            </g>
        </g>
    </g>
</svg>
