<?xml version="1.0" encoding="UTF-8"?>
<svg width="610px" height="460px" viewBox="0 0 610 460" version="1.1" xmlns="http://www.w3.org/2000/svg" xmlns:xlink="http://www.w3.org/1999/xlink">
    <!-- Generator: Sketch 49.3 (51167) - http://www.bohemiancoding.com/sketch -->
    <title>Schematic</title>
    <desc>Created with Sketch.</desc>
    <defs></defs>
    <g id="Schematic" stroke="none" stroke-width="1" fill="none" fill-rule="evenodd">
        <text id="UPSTREAM" font-family=".AppleSystemUIFont" font-size="15" font-weight="normal" fill="#3E7091">
            <tspan x="14" y="30">UPSTREAM</tspan>
        </text>
        <text id="MIDSTREAM" font-family=".AppleSystemUIFont" font-size="15" font-weight="normal" fill="#3E796F">
            <tspan x="386" y="30">MIDSTREAM</tspan>
        </text>
        <path d="M56.7686338,382.5 L127.373709,382.5" id="Line-2-Copy" stroke="#3E7091" stroke-linecap="square"></path>
        <path d="M56.7686338,321.5 L127.373709,321.5" id="Line-2-Copy-2" stroke="#3E7091" stroke-linecap="square"></path>
        <path d="M56.7686338,258.5 L127.373709,258.5" id="Line-2-Copy-3" stroke="#3E7091" stroke-linecap="square"></path>
        <path d="M56.7686338,197.5 L127.373709,197.5" id="Line-2-Copy-4" stroke="#3E7091" stroke-linecap="square"></path>
        <path d="M56.7686338,131.5 L127.373709,131.5" id="Line-2-Copy-11" stroke="#3E7091" stroke-linecap="square"></path>
        <path d="M56.7686338,74.5 L127.373709,74.5" id="Line-2-Copy-12" stroke="#3E7091" stroke-linecap="square"></path>
        <text id="DOWNSTREAM" font-family=".AppleSystemUIFont" font-size="15" font-weight="normal" fill="#679F00">
            <tspan x="498" y="30">DOWNSTREAM</tspan>
        </text>
        <rect id="Rectangle-6-Copy-4" fill="#FFFFFF" x="40" y="298" width="42" height="49"></rect>
        <rect id="Rectangle-6-Copy-5" fill="#FFFFFF" x="40" y="359" width="42" height="49"></rect>
        <text id="Razak" font-family=".AppleSystemUIFont" font-size="12" font-weight="normal" fill="#3F7092">
            <tspan x="43.9667969" y="342">Razak</tspan>
        </text>
        <path d="M54.2965521,312.769644 L61.4648222,309.726894 C61.6596173,308.150939 62.9800861,306.931985 64.5800476,306.931985 C65.2994919,306.931985 65.9624234,307.178454 66.491907,307.593023 L72.6262816,304.989136 L73.8760374,307.933376 L72.4300079,308.547179 L72.4300079,324.523767 L73,324.523767 C73.5522847,324.523767 74,324.971482 74,325.523767 L74,326 L55.1600953,326 L55.1600953,325.523767 C55.1600953,324.971482 55.6078105,324.523767 56.1600953,324.523767 L61.4400635,324.523767 L62.4355766,312.789563 L55.5463078,315.713884 L56.4976591,317.955127 C56.6055566,318.209318 56.4869627,318.502848 56.2327723,318.610745 L52.8177212,320.060349 C52.5635308,320.168246 52.2700006,320.049652 52.1621032,319.795462 L49.0433873,312.448227 C48.9354899,312.194037 49.0540837,311.900507 49.3082741,311.792609 L52.7233252,310.343006 C52.9775156,310.235109 53.2710458,310.353703 53.3789432,310.607893 L54.2965521,312.769644 Z M67.6921933,310.558262 C67.5922588,311.319903 67.2291879,311.996735 66.6991699,312.490774 L67.7200318,324.523767 L70.8600159,324.523767 L70.8600159,309.213601 L67.6921933,310.558262 Z M64.5800476,311.729744 C65.4471303,311.729744 66.1500397,311.013734 66.1500397,310.130491 C66.1500397,309.247248 65.4471303,308.531238 64.5800476,308.531238 C63.712965,308.531238 63.0100556,309.247248 63.0100556,310.130491 C63.0100556,311.013734 63.712965,311.729744 64.5800476,311.729744 Z" id="Combined-Shape-Copy-17" fill="#3E7091"></path>
        <text id="Zareif" font-family=".AppleSystemUIFont" font-size="12" font-weight="normal" fill="#000000">
            <tspan x="44.4472656" y="403">Zareif</tspan>
        </text>
        <path d="M54.2965521,373.769644 L61.4648222,370.726894 C61.6596173,369.150939 62.9800861,367.931985 64.5800476,367.931985 C65.2994919,367.931985 65.9624234,368.178454 66.491907,368.593023 L72.6262816,365.989136 L73.8760374,368.933376 L72.4300079,369.547179 L72.4300079,385.523767 L73,385.523767 C73.5522847,385.523767 74,385.971482 74,386.523767 L74,387 L55.1600953,387 L55.1600953,386.523767 C55.1600953,385.971482 55.6078105,385.523767 56.1600953,385.523767 L61.4400635,385.523767 L62.4355766,373.789563 L55.5463078,376.713884 L56.4976591,378.955127 C56.6055566,379.209318 56.4869627,379.502848 56.2327723,379.610745 L52.8177212,381.060349 C52.5635308,381.168246 52.2700006,381.049652 52.1621032,380.795462 L49.0433873,373.448227 C48.9354899,373.194037 49.0540837,372.900507 49.3082741,372.792609 L52.7233252,371.343006 C52.9775156,371.235109 53.2710458,371.353703 53.3789432,371.607893 L54.2965521,373.769644 Z M67.6921933,371.558262 C67.5922588,372.319903 67.2291879,372.996735 66.6991699,373.490774 L67.7200318,385.523767 L70.8600159,385.523767 L70.8600159,370.213601 L67.6921933,371.558262 Z M64.5800476,372.729744 C65.4471303,372.729744 66.1500397,372.013734 66.1500397,371.130491 C66.1500397,370.247248 65.4471303,369.531238 64.5800476,369.531238 C63.712965,369.531238 63.0100556,370.247248 63.0100556,371.130491 C63.0100556,372.013734 63.712965,372.729744 64.5800476,372.729744 Z" id="Combined-Shape-Copy-18" fill="#000000"></path>
        <text id="Zareif-Copy" font-family=".AppleSystemUIFont" font-size="12" font-weight="normal" fill="#3F7092">
            <tspan x="44.4472656" y="403">Zareif</tspan>
        </text>
        <path d="M54.2965521,373.769644 L61.4648222,370.726894 C61.6596173,369.150939 62.9800861,367.931985 64.5800476,367.931985 C65.2994919,367.931985 65.9624234,368.178454 66.491907,368.593023 L72.6262816,365.989136 L73.8760374,368.933376 L72.4300079,369.547179 L72.4300079,385.523767 L73,385.523767 C73.5522847,385.523767 74,385.971482 74,386.523767 L74,387 L55.1600953,387 L55.1600953,386.523767 C55.1600953,385.971482 55.6078105,385.523767 56.1600953,385.523767 L61.4400635,385.523767 L62.4355766,373.789563 L55.5463078,376.713884 L56.4976591,378.955127 C56.6055566,379.209318 56.4869627,379.502848 56.2327723,379.610745 L52.8177212,381.060349 C52.5635308,381.168246 52.2700006,381.049652 52.1621032,380.795462 L49.0433873,373.448227 C48.9354899,373.194037 49.0540837,372.900507 49.3082741,372.792609 L52.7233252,371.343006 C52.9775156,371.235109 53.2710458,371.353703 53.3789432,371.607893 L54.2965521,373.769644 Z M67.6921933,371.558262 C67.5922588,372.319903 67.2291879,372.996735 66.6991699,373.490774 L67.7200318,385.523767 L70.8600159,385.523767 L70.8600159,370.213601 L67.6921933,371.558262 Z M64.5800476,372.729744 C65.4471303,372.729744 66.1500397,372.013734 66.1500397,371.130491 C66.1500397,370.247248 65.4471303,369.531238 64.5800476,369.531238 C63.712965,369.531238 63.0100556,370.247248 63.0100556,371.130491 C63.0100556,372.013734 63.712965,372.729744 64.5800476,372.729744 Z" id="Combined-Shape-Copy-19" fill="#3E7091"></path>
        <path d="M296.5,147.5 L296.5,105.5" id="Line-4" stroke="#000000" stroke-linecap="square"></path>
        <path d="M127.5,104.5 L377.517999,104.5" id="Line-2" stroke="#3E7091" stroke-linecap="square"></path>
        <rect id="Rectangle-6" fill="#FFFFFF" x="141" y="75" width="97" height="49"></rect>
        <rect id="Rectangle-6-Copy-2" fill="#FFFFFF" x="40" y="174" width="42" height="49"></rect>
        <rect id="Rectangle-6-Copy-13" fill="#FFFFFF" x="40" y="106" width="42" height="49"></rect>
        <rect id="Rectangle-6-Copy-14" fill="#FFFFFF" x="40" y="50" width="42" height="49"></rect>
        <rect id="Rectangle-6-Copy-3" fill="#FFFFFF" x="40" y="234" width="42" height="49"></rect>
        <rect id="Rectangle-6-Copy" fill="#FFFFFF" x="250" y="75" width="97" height="49"></rect>
        <text id="Obayed" font-family=".AppleSystemUIFont" font-size="12" font-weight="normal" fill="#3F7092">
            <tspan x="39.2412109" y="217">Obayed</tspan>
        </text>
        <path d="M473.480453,234 L490.453649,234.362429 L490.453649,156.855373 L539.500179,156.855373" id="Path-2" stroke="#3E796F" stroke-dasharray="2"></path>
        <path d="M473,239.144627 L528.522623,239.507057" id="Path-2-Copy" stroke="#3E796F" stroke-dasharray="2"></path>
        <path d="M251.495238,198.5 L377.5,198.5" id="Line-2-Copy-5" stroke="#3E7091" stroke-linecap="square"></path>
        <rect id="Rectangle-6-Copy-7" fill="#FFFFFF" x="287" y="173" width="60" height="49"></rect>
        <rect id="Rectangle-6-Copy-6" fill="#FFFFFF" x="226" y="173" width="43" height="49"></rect>
        <text id="N---Alamin" font-family=".AppleSystemUIFont" font-size="12" font-weight="normal" fill="#3F7092">
            <tspan x="239.023438" y="216">N - </tspan>
            <tspan x="228.936523" y="231">Alamin</tspan>
        </text>
        <path d="M241.296552,186.769644 L248.464822,183.726894 C248.659617,182.150939 249.980086,180.931985 251.580048,180.931985 C252.299492,180.931985 252.962423,181.178454 253.491907,181.593023 L259.626282,178.989136 L260.876037,181.933376 L259.430008,182.547179 L259.430008,198.523767 L260,198.523767 C260.552285,198.523767 261,198.971482 261,199.523767 L261,200 L242.160095,200 L242.160095,199.523767 C242.160095,198.971482 242.607811,198.523767 243.160095,198.523767 L248.440064,198.523767 L249.435577,186.789563 L242.546308,189.713884 L243.497659,191.955127 C243.605557,192.209318 243.486963,192.502848 243.232772,192.610745 L239.817721,194.060349 C239.563531,194.168246 239.270001,194.049652 239.162103,193.795462 L236.043387,186.448227 C235.93549,186.194037 236.054084,185.900507 236.308274,185.792609 L239.723325,184.343006 C239.977516,184.235109 240.271046,184.353703 240.378943,184.607893 L241.296552,186.769644 Z M254.692193,184.558262 C254.592259,185.319903 254.229188,185.996735 253.69917,186.490774 L254.720032,198.523767 L257.860016,198.523767 L257.860016,183.213601 L254.692193,184.558262 Z M251.580048,185.729744 C252.44713,185.729744 253.15004,185.013734 253.15004,184.130491 C253.15004,183.247248 252.44713,182.531238 251.580048,182.531238 C250.712965,182.531238 250.010056,183.247248 250.010056,184.130491 C250.010056,185.013734 250.712965,185.729744 251.580048,185.729744 Z" id="Combined-Shape-Copy-26" fill="#3F7092"></path>
        <text id="Bed---1" font-family=".AppleSystemUIFont" font-size="12" font-weight="normal" fill="#3F7092">
            <tspan x="297.428711" y="216">Bed - 1</tspan>
        </text>
        <path d="M310.296552,186.769644 L317.464822,183.726894 C317.659617,182.150939 318.980086,180.931985 320.580048,180.931985 C321.299492,180.931985 321.962423,181.178454 322.491907,181.593023 L328.626282,178.989136 L329.876037,181.933376 L328.430008,182.547179 L328.430008,198.523767 L329,198.523767 C329.552285,198.523767 330,198.971482 330,199.523767 L330,200 L311.160095,200 L311.160095,199.523767 C311.160095,198.971482 311.607811,198.523767 312.160095,198.523767 L317.440064,198.523767 L318.435577,186.789563 L311.546308,189.713884 L312.497659,191.955127 C312.605557,192.209318 312.486963,192.502848 312.232772,192.610745 L308.817721,194.060349 C308.563531,194.168246 308.270001,194.049652 308.162103,193.795462 L305.043387,186.448227 C304.93549,186.194037 305.054084,185.900507 305.308274,185.792609 L308.723325,184.343006 C308.977516,184.235109 309.271046,184.353703 309.378943,184.607893 L310.296552,186.769644 Z M323.692193,184.558262 C323.592259,185.319903 323.229188,185.996735 322.69917,186.490774 L323.720032,198.523767 L326.860016,198.523767 L326.860016,183.213601 L323.692193,184.558262 Z M320.580048,185.729744 C321.44713,185.729744 322.15004,185.013734 322.15004,184.130491 C322.15004,183.247248 321.44713,182.531238 320.580048,182.531238 C319.712965,182.531238 319.010056,183.247248 319.010056,184.130491 C319.010056,185.013734 319.712965,185.729744 320.580048,185.729744 Z" id="Combined-Shape-Copy-28" fill="#3F7092"></path>
        <text id="Tarek" font-family=".AppleSystemUIFont" font-size="12" font-weight="normal" fill="#3F7092">
            <tspan x="45.4433594" y="279">Tarek</tspan>
        </text>
        <rect id="Rectangle-7" fill="#FFFFFF" x="527" y="136" width="40" height="41"></rect>
        <rect id="Rectangle-7-Copy" fill="#FFFFFF" x="527" y="220" width="40" height="41"></rect>
        <text id="Midor" font-family=".AppleSystemUIFont" font-size="12" font-weight="normal" fill="#679F00">
            <tspan x="530.763672" y="176">Midor</tspan>
        </text>
        <path d="M536.001862,159.991283 L553,160 L553,148 L543.999601,152.393926 L543.999601,148 L535,152.393926 L535.002375,158.99077 C535.00251,159.542758 535.449874,159.990241 536.001862,159.990524 Z M555,142 L555,160 L560,160 L560,142 C560,141.447715 559.552285,141 559,141 L556,141 C555.447715,141 555,141.447715 555,142 Z" id="Shape-Copy-11" fill="#679F00" fill-rule="nonzero"></path>
        <path d="M241.495652,339.5 L377.5,339.5" id="Line-2-Copy-6" stroke="#3E7091" stroke-linecap="square"></path>
        <rect id="Rectangle-6-Copy-8" fill="#FFFFFF" x="277" y="316" width="71" height="49"></rect>
        <text id="Bed---3" font-family=".AppleSystemUIFont" font-size="12" font-weight="normal" fill="#3F7092">
            <tspan x="291.464844" y="357">Bed - 3</tspan>
        </text>
        <path d="M289.296552,327.769644 L296.464822,324.726894 C296.659617,323.150939 297.980086,321.931985 299.580048,321.931985 C300.299492,321.931985 300.962423,322.178454 301.491907,322.593023 L307.626282,319.989136 L308.876037,322.933376 L307.430008,323.547179 L307.430008,339.523767 L308,339.523767 C308.552285,339.523767 309,339.971482 309,340.523767 L309,341 L290.160095,341 L290.160095,340.523767 C290.160095,339.971482 290.607811,339.523767 291.160095,339.523767 L296.440064,339.523767 L297.435577,327.789563 L290.546308,330.713884 L291.497659,332.955127 C291.605557,333.209318 291.486963,333.502848 291.232772,333.610745 L287.817721,335.060349 C287.563531,335.168246 287.270001,335.049652 287.162103,334.795462 L284.043387,327.448227 C283.93549,327.194037 284.054084,326.900507 284.308274,326.792609 L287.723325,325.343006 C287.977516,325.235109 288.271046,325.353703 288.378943,325.607893 L289.296552,327.769644 Z M302.692193,325.558262 C302.592259,326.319903 302.229188,326.996735 301.69917,327.490774 L302.720032,339.523767 L305.860016,339.523767 L305.860016,324.213601 L302.692193,325.558262 Z M299.580048,326.729744 C300.44713,326.729744 301.15004,326.013734 301.15004,325.130491 C301.15004,324.247248 300.44713,323.531238 299.580048,323.531238 C298.712965,323.531238 298.010056,324.247248 298.010056,325.130491 C298.010056,326.013734 298.712965,326.729744 299.580048,326.729744 Z" id="Combined-Shape-Copy-29" fill="#3E7091"></path>
        <path d="M317.001862,339.991283 L334,340 L334,328 L324.999601,332.393926 L324.999601,328 L316,332.393926 L316.002375,338.99077 C316.00251,339.542758 316.449874,339.990241 317.001862,339.990524 Z M336,322 L336,340 L341,340 L341,322 C341,321.447715 340.552285,321 340,321 L337,321 C336.447715,321 336,321.447715 336,322 Z" id="Shape-Copy-16" fill="#3E7091" fill-rule="nonzero"></path>
        <text id="Northern-Pipeline" transform="translate(444.000000, 157.500000) rotate(90.000000) translate(-444.000000, -157.500000) " font-family="GEInspiraSans-Regular, GE Inspira Sans" font-size="12" font-weight="normal" fill="#4A90E2">
            <tspan x="399.6" y="160.5">Northern Pipeline</tspan>
        </text>
        <path d="M536.001862,242.991283 L553,243 L553,231 L543.999601,235.393926 L543.999601,231 L535,235.393926 L535.002375,241.99077 C535.00251,242.542758 535.449874,242.990241 536.001862,242.990524 Z M555,225 L555,243 L560,243 L560,225 C560,224.447715 559.552285,224 559,224 L556,224 C555.447715,224 555,224.447715 555,225 Z" id="Shape-Copy-12" fill="#679F00" fill-rule="nonzero"></path>
        <g id="Group-2" transform="translate(144.000000, 84.000000)" fill="#3E7091">
            <path d="M5.29655207,7.76964416 L12.4648222,4.72689403 C12.6596173,3.15093883 13.9800861,1.93198541 15.5800476,1.93198541 C16.2994919,1.93198541 16.9624234,2.1784544 17.491907,2.59302312 L23.6262816,-0.0108644281 L24.8760374,2.93337557 L23.4300079,3.54717864 L23.4300079,19.5237666 L24,19.5237666 C24.5522847,19.5237666 25,19.9714819 25,20.5237666 L25,21 L6.1600953,21 L6.1600953,20.5237666 C6.1600953,19.9714819 6.60781055,19.5237666 7.1600953,19.5237666 L12.4400635,19.5237666 L13.4355766,7.78956305 L6.5463078,10.7138842 L7.49765915,12.9551275 C7.60555657,13.2093179 7.48696268,13.5028481 7.23277228,13.6107455 L3.81772121,15.0603487 C3.56353081,15.1682461 3.27000064,15.0496522 3.16210322,14.7954618 L0.0433872759,7.44822746 C-0.0645101458,7.19403707 0.0540837421,6.90050689 0.308274138,6.79260947 L3.72332521,5.34300629 C3.97751561,5.23510887 4.27104578,5.35370276 4.37894321,5.60789316 L5.29655207,7.76964416 Z M18.6921933,5.55826163 C18.5922588,6.31990336 18.2291879,6.99673489 17.6991699,7.49077401 L18.7200318,19.5237666 L21.8600159,19.5237666 L21.8600159,4.21360073 L18.6921933,5.55826163 Z M15.5800476,6.72974392 C16.4471303,6.72974392 17.1500397,6.01373404 17.1500397,5.13049109 C17.1500397,4.24724813 16.4471303,3.53123825 15.5800476,3.53123825 C14.712965,3.53123825 14.0100556,4.24724813 14.0100556,5.13049109 C14.0100556,6.01373404 14.712965,6.72974392 15.5800476,6.72974392 Z" id="Combined-Shape-Copy-24"></path>
            <path d="M67.0018619,19.9912825 L84,20 L84,8 L74.999601,12.3939259 L74.999601,8 L66,12.3939259 L66.0023752,18.9907695 C66.0025105,19.5427583 66.4498736,19.9902412 67.0018623,19.9905243 Z M86,2 L86,20 L91,20 L91,2 C91,1.44771525 90.5522847,1 90,1 L87,1 C86.4477153,1 86,1.44771525 86,2 Z" id="Shape-Copy-14" fill-rule="nonzero"></path>
            <path d="M48.2,10.3333333 L48.2,10.6 L48.2,21 L47.2,21 L33,21 C32.4477153,21 32,20.5522847 32,20 L32,8.13333333 C32,7.58104858 32.4477153,7.13333333 33,7.13333333 L47.2,7.13333333 C47.7522847,7.13333333 48.2,7.58104858 48.2,8.13333333 L48.2,10.3333333 Z M50.36,10.3333333 L58,10.3333333 C58.5522847,10.3333333 59,10.7810486 59,11.3333333 L59,20 C59,20.5522847 58.5522847,21 58,21 L50.36,21 L50.36,10.6 L50.36,10.3333333 Z M33.08,9.26666667 L33.08,18.8666667 L35.24,18.8666667 L35.24,9.26666667 L33.08,9.26666667 Z M51.44,12.4666667 L51.44,18.8666667 L52.52,18.8666667 L52.52,12.4666667 L51.44,12.4666667 Z M32.5333333,5 L47.6666667,5 C47.9612185,5 48.2,5.23878147 48.2,5.53333333 C48.2,5.8278852 47.9612185,6.06666667 47.6666667,6.06666667 L32.5333333,6.06666667 C32.2387815,6.06666667 32,5.8278852 32,5.53333333 C32,5.23878147 32.2387815,5 32.5333333,5 Z M50.36,8.2 L58.4666667,8.2 C58.7612185,8.2 59,8.43878147 59,8.73333333 C59,9.0278852 58.7612185,9.26666667 58.4666667,9.26666667 L50.36,9.26666667 L50.36,8.2 Z" id="Combined-Shape-Copy-8"></path>
        </g>
        <text id="Meleha" font-family=".AppleSystemUIFont" font-size="12" font-weight="normal" fill="#3F7092">
            <tspan x="278.515625" y="121">Meleha</tspan>
        </text>
        <path d="M258.296552,91.7696442 L265.464822,88.726894 C265.659617,87.1509388 266.980086,85.9319854 268.580048,85.9319854 C269.299492,85.9319854 269.962423,86.1784544 270.491907,86.5930231 L276.626282,83.9891356 L277.876037,86.9333756 L276.430008,87.5471786 L276.430008,103.523767 L277,103.523767 C277.552285,103.523767 278,103.971482 278,104.523767 L278,105 L259.160095,105 L259.160095,104.523767 C259.160095,103.971482 259.607811,103.523767 260.160095,103.523767 L265.440064,103.523767 L266.435577,91.7895631 L259.546308,94.7138842 L260.497659,96.9551275 C260.605557,97.2093179 260.486963,97.5028481 260.232772,97.6107455 L256.817721,99.0603487 C256.563531,99.1682461 256.270001,99.0496522 256.162103,98.7954618 L253.043387,91.4482275 C252.93549,91.1940371 253.054084,90.9005069 253.308274,90.7926095 L256.723325,89.3430063 C256.977516,89.2351089 257.271046,89.3537028 257.378943,89.6078932 L258.296552,91.7696442 Z M271.692193,89.5582616 C271.592259,90.3199034 271.229188,90.9967349 270.69917,91.490774 L271.720032,103.523767 L274.860016,103.523767 L274.860016,88.2136007 L271.692193,89.5582616 Z M268.580048,90.7297439 C269.44713,90.7297439 270.15004,90.013734 270.15004,89.1304911 C270.15004,88.2472481 269.44713,87.5312382 268.580048,87.5312382 C267.712965,87.5312382 267.010056,88.2472481 267.010056,89.1304911 C267.010056,90.013734 267.712965,90.7297439 268.580048,90.7297439 Z" id="Combined-Shape-Copy-24" fill="#3E7091"></path>
        <path d="M320.001862,103.991283 L337,104 L337,92 L327.999601,96.3939259 L327.999601,92 L319,96.3939259 L319.002375,102.99077 C319.00251,103.542758 319.449874,103.990241 320.001862,103.990524 Z M339,86 L339,104 L344,104 L344,86 C344,85.4477153 343.552285,85 343,85 L340,85 C339.447715,85 339,85.4477153 339,86 Z" id="Shape-Copy-14" fill="#3E7091" fill-rule="nonzero"></path>
        <path d="M301.2,94.3333333 L301.2,94.6 L301.2,105 L300.2,105 L286,105 C285.447715,105 285,104.552285 285,104 L285,92.1333333 C285,91.5810486 285.447715,91.1333333 286,91.1333333 L300.2,91.1333333 C300.752285,91.1333333 301.2,91.5810486 301.2,92.1333333 L301.2,94.3333333 Z M303.36,94.3333333 L311,94.3333333 C311.552285,94.3333333 312,94.7810486 312,95.3333333 L312,104 C312,104.552285 311.552285,105 311,105 L303.36,105 L303.36,94.6 L303.36,94.3333333 Z M286.08,93.2666667 L286.08,102.866667 L288.24,102.866667 L288.24,93.2666667 L286.08,93.2666667 Z M304.44,96.4666667 L304.44,102.866667 L305.52,102.866667 L305.52,96.4666667 L304.44,96.4666667 Z M285.533333,89 L300.666667,89 C300.961219,89 301.2,89.2387815 301.2,89.5333333 C301.2,89.8278852 300.961219,90.0666667 300.666667,90.0666667 L285.533333,90.0666667 C285.238781,90.0666667 285,89.8278852 285,89.5333333 C285,89.2387815 285.238781,89 285.533333,89 Z M303.36,92.2 L311.466667,92.2 C311.761219,92.2 312,92.4387815 312,92.7333333 C312,93.0278852 311.761219,93.2666667 311.466667,93.2666667 L303.36,93.2666667 L303.36,92.2 Z" id="Combined-Shape-Copy-8" fill="#3E7091"></path>
        <path d="M127.5,382.5 L127.5,148.5" id="Line" stroke="#3E7091" stroke-linecap="square"></path>
        <path d="M127.5,131.5 L127.5,74.6906493" id="Line-Copy" stroke="#3E7091" stroke-linecap="square"></path>
        <text id="Umbarka-&amp;-South-Umba" font-family=".AppleSystemUIFont" font-size="12" font-weight="normal" fill="#3F7092">
            <tspan x="29.5908203" y="94">Umbarka &amp; </tspan>
            <tspan x="17.2451172" y="109">South Umbarka</tspan>
        </text>
        <path d="M54.2965521,64.7696442 L61.4648222,61.726894 C61.6596173,60.1509388 62.9800861,58.9319854 64.5800476,58.9319854 C65.2994919,58.9319854 65.9624234,59.1784544 66.491907,59.5930231 L72.6262816,56.9891356 L73.8760374,59.9333756 L72.4300079,60.5471786 L72.4300079,76.5237666 L73,76.5237666 C73.5522847,76.5237666 74,76.9714819 74,77.5237666 L74,78 L55.1600953,78 L55.1600953,77.5237666 C55.1600953,76.9714819 55.6078105,76.5237666 56.1600953,76.5237666 L61.4400635,76.5237666 L62.4355766,64.7895631 L55.5463078,67.7138842 L56.4976591,69.9551275 C56.6055566,70.2093179 56.4869627,70.5028481 56.2327723,70.6107455 L52.8177212,72.0603487 C52.5635308,72.1682461 52.2700006,72.0496522 52.1621032,71.7954618 L49.0433873,64.4482275 C48.9354899,64.1940371 49.0540837,63.9005069 49.3082741,63.7926095 L52.7233252,62.3430063 C52.9775156,62.2351089 53.2710458,62.3537028 53.3789432,62.6078932 L54.2965521,64.7696442 Z M67.6921933,62.5582616 C67.5922588,63.3199034 67.2291879,63.9967349 66.6991699,64.490774 L67.7200318,76.5237666 L70.8600159,76.5237666 L70.8600159,61.2136007 L67.6921933,62.5582616 Z M64.5800476,63.7297439 C65.4471303,63.7297439 66.1500397,63.013734 66.1500397,62.1304911 C66.1500397,61.2472481 65.4471303,60.5312382 64.5800476,60.5312382 C63.712965,60.5312382 63.0100556,61.2472481 63.0100556,62.1304911 C63.0100556,63.013734 63.712965,63.7297439 64.5800476,63.7297439 Z" id="Combined-Shape-Copy-15" fill="#3E7091"></path>
        <path d="M200.5,361.431858 L200.5,427.504545" id="Line-5-Copy" stroke="#000000" stroke-linecap="square"></path>
        <text id="Safir-&amp;-Hayat" font-family=".AppleSystemUIFont" font-size="12" font-weight="normal" fill="#3F7092">
            <tspan x="24.0009766" y="153">Safir &amp; Hayat</tspan>
        </text>
        <path d="M54.2965521,123.769644 L61.4648222,120.726894 C61.6596173,119.150939 62.9800861,117.931985 64.5800476,117.931985 C65.2994919,117.931985 65.9624234,118.178454 66.491907,118.593023 L72.6262816,115.989136 L73.8760374,118.933376 L72.4300079,119.547179 L72.4300079,135.523767 L73,135.523767 C73.5522847,135.523767 74,135.971482 74,136.523767 L74,137 L55.1600953,137 L55.1600953,136.523767 C55.1600953,135.971482 55.6078105,135.523767 56.1600953,135.523767 L61.4400635,135.523767 L62.4355766,123.789563 L55.5463078,126.713884 L56.4976591,128.955127 C56.6055566,129.209318 56.4869627,129.502848 56.2327723,129.610745 L52.8177212,131.060349 C52.5635308,131.168246 52.2700006,131.049652 52.1621032,130.795462 L49.0433873,123.448227 C48.9354899,123.194037 49.0540837,122.900507 49.3082741,122.792609 L52.7233252,121.343006 C52.9775156,121.235109 53.2710458,121.353703 53.3789432,121.607893 L54.2965521,123.769644 Z M67.6921933,121.558262 C67.5922588,122.319903 67.2291879,122.996735 66.6991699,123.490774 L67.7200318,135.523767 L70.8600159,135.523767 L70.8600159,120.213601 L67.6921933,121.558262 Z M64.5800476,122.729744 C65.4471303,122.729744 66.1500397,122.013734 66.1500397,121.130491 C66.1500397,120.247248 65.4471303,119.531238 64.5800476,119.531238 C63.712965,119.531238 63.0100556,120.247248 63.0100556,121.130491 C63.0100556,122.013734 63.712965,122.729744 64.5800476,122.729744 Z" id="Combined-Shape-Copy-16" fill="#3E7091"></path>
        <path d="M127.5,147.5 L296.502959,147.5" id="Line-3" stroke="#3E7091" stroke-linecap="square"></path>
        <path d="M192.768634,258.5 L240.510474,258.5" id="Line-2-Copy-7" stroke="#3E7091" stroke-linecap="square"></path>
        <path d="M192.768634,316.5 L240.510474,316.5" id="Line-2-Copy-8" stroke="#3E7091" stroke-linecap="square"></path>
        <path d="M192.768634,368.5 L240.510474,368.5" id="Line-2-Copy-9" stroke="#3E7091" stroke-linecap="square"></path>
        <rect id="Rectangle-6-Copy-9" fill="#FFFFFF" x="178" y="234" width="46" height="49"></rect>
        <rect id="Rectangle-6-Copy-10" fill="#FFFFFF" x="178" y="291" width="46" height="49"></rect>
        <rect id="Rectangle-6-Copy-11" fill="#FFFFFF" x="178" y="345" width="46" height="43"></rect>
        <rect id="Rectangle-6-Copy-12" fill="#FFFFFF" x="178" y="401" width="46" height="43"></rect>
        <text id="Sitra---5" font-family=".AppleSystemUIFont" font-size="12" font-weight="normal" fill="#000000">
            <tspan x="183.401367" y="277">Sitra - </tspan>
            <tspan x="197.288086" y="292">5</tspan>
        </text>
        <path d="M194.296552,247.769644 L201.464822,244.726894 C201.659617,243.150939 202.980086,241.931985 204.580048,241.931985 C205.299492,241.931985 205.962423,242.178454 206.491907,242.593023 L212.626282,239.989136 L213.876037,242.933376 L212.430008,243.547179 L212.430008,259.523767 L213,259.523767 C213.552285,259.523767 214,259.971482 214,260.523767 L214,261 L195.160095,261 L195.160095,260.523767 C195.160095,259.971482 195.607811,259.523767 196.160095,259.523767 L201.440064,259.523767 L202.435577,247.789563 L195.546308,250.713884 L196.497659,252.955127 C196.605557,253.209318 196.486963,253.502848 196.232772,253.610745 L192.817721,255.060349 C192.563531,255.168246 192.270001,255.049652 192.162103,254.795462 L189.043387,247.448227 C188.93549,247.194037 189.054084,246.900507 189.308274,246.792609 L192.723325,245.343006 C192.977516,245.235109 193.271046,245.353703 193.378943,245.607893 L194.296552,247.769644 Z M207.692193,245.558262 C207.592259,246.319903 207.229188,246.996735 206.69917,247.490774 L207.720032,259.523767 L210.860016,259.523767 L210.860016,244.213601 L207.692193,245.558262 Z M204.580048,246.729744 C205.44713,246.729744 206.15004,246.013734 206.15004,245.130491 C206.15004,244.247248 205.44713,243.531238 204.580048,243.531238 C203.712965,243.531238 203.010056,244.247248 203.010056,245.130491 C203.010056,246.013734 203.712965,246.729744 204.580048,246.729744 Z" id="Combined-Shape-Copy-33" fill="#000000"></path>
        <text id="Sitra---5-Copy" font-family=".AppleSystemUIFont" font-size="12" font-weight="normal" fill="#3F7092">
            <tspan x="183.401367" y="277">Sitra - </tspan>
            <tspan x="197.288086" y="292">5</tspan>
        </text>
        <path d="M194.296552,247.769644 L201.464822,244.726894 C201.659617,243.150939 202.980086,241.931985 204.580048,241.931985 C205.299492,241.931985 205.962423,242.178454 206.491907,242.593023 L212.626282,239.989136 L213.876037,242.933376 L212.430008,243.547179 L212.430008,259.523767 L213,259.523767 C213.552285,259.523767 214,259.971482 214,260.523767 L214,261 L195.160095,261 L195.160095,260.523767 C195.160095,259.971482 195.607811,259.523767 196.160095,259.523767 L201.440064,259.523767 L202.435577,247.789563 L195.546308,250.713884 L196.497659,252.955127 C196.605557,253.209318 196.486963,253.502848 196.232772,253.610745 L192.817721,255.060349 C192.563531,255.168246 192.270001,255.049652 192.162103,254.795462 L189.043387,247.448227 C188.93549,247.194037 189.054084,246.900507 189.308274,246.792609 L192.723325,245.343006 C192.977516,245.235109 193.271046,245.353703 193.378943,245.607893 L194.296552,247.769644 Z M207.692193,245.558262 C207.592259,246.319903 207.229188,246.996735 206.69917,247.490774 L207.720032,259.523767 L210.860016,259.523767 L210.860016,244.213601 L207.692193,245.558262 Z M204.580048,246.729744 C205.44713,246.729744 206.15004,246.013734 206.15004,245.130491 C206.15004,244.247248 205.44713,243.531238 204.580048,243.531238 C203.712965,243.531238 203.010056,244.247248 203.010056,245.130491 C203.010056,246.013734 203.712965,246.729744 204.580048,246.729744 Z" id="Combined-Shape-Copy-34" fill="#3E7091"></path>
        <text id="Bed---2" font-family=".AppleSystemUIFont" font-size="12" font-weight="normal" fill="#3F7092">
            <tspan x="180.102539" y="386">Bed - 2</tspan>
        </text>
        <text id="EL" font-family="GEInspiraSans-Regular, GE Inspira Sans" font-size="12" font-weight="normal" fill="#3F7092">
            <tspan x="195.018" y="439">EL</tspan>
        </text>
        <path d="M194.296552,356.769644 L201.464822,353.726894 C201.659617,352.150939 202.980086,350.931985 204.580048,350.931985 C205.299492,350.931985 205.962423,351.178454 206.491907,351.593023 L212.626282,348.989136 L213.876037,351.933376 L212.430008,352.547179 L212.430008,368.523767 L213,368.523767 C213.552285,368.523767 214,368.971482 214,369.523767 L214,370 L195.160095,370 L195.160095,369.523767 C195.160095,368.971482 195.607811,368.523767 196.160095,368.523767 L201.440064,368.523767 L202.435577,356.789563 L195.546308,359.713884 L196.497659,361.955127 C196.605557,362.209318 196.486963,362.502848 196.232772,362.610745 L192.817721,364.060349 C192.563531,364.168246 192.270001,364.049652 192.162103,363.795462 L189.043387,356.448227 C188.93549,356.194037 189.054084,355.900507 189.308274,355.792609 L192.723325,354.343006 C192.977516,354.235109 193.271046,354.353703 193.378943,354.607893 L194.296552,356.769644 Z M207.692193,354.558262 C207.592259,355.319903 207.229188,355.996735 206.69917,356.490774 L207.720032,368.523767 L210.860016,368.523767 L210.860016,353.213601 L207.692193,354.558262 Z M204.580048,355.729744 C205.44713,355.729744 206.15004,355.013734 206.15004,354.130491 C206.15004,353.247248 205.44713,352.531238 204.580048,352.531238 C203.712965,352.531238 203.010056,353.247248 203.010056,354.130491 C203.010056,355.013734 203.712965,355.729744 204.580048,355.729744 Z" id="Combined-Shape-Copy-32" fill="#3E7091"></path>
        <text id="Sitra---3" font-family=".AppleSystemUIFont" font-size="12" font-weight="normal" fill="#000000">
            <tspan x="183.401367" y="332">Sitra - </tspan>
            <tspan x="197.238281" y="347">3</tspan>
        </text>
        <path d="M194.296552,302.769644 L201.464822,299.726894 C201.659617,298.150939 202.980086,296.931985 204.580048,296.931985 C205.299492,296.931985 205.962423,297.178454 206.491907,297.593023 L212.626282,294.989136 L213.876037,297.933376 L212.430008,298.547179 L212.430008,314.523767 L213,314.523767 C213.552285,314.523767 214,314.971482 214,315.523767 L214,316 L195.160095,316 L195.160095,315.523767 C195.160095,314.971482 195.607811,314.523767 196.160095,314.523767 L201.440064,314.523767 L202.435577,302.789563 L195.546308,305.713884 L196.497659,307.955127 C196.605557,308.209318 196.486963,308.502848 196.232772,308.610745 L192.817721,310.060349 C192.563531,310.168246 192.270001,310.049652 192.162103,309.795462 L189.043387,302.448227 C188.93549,302.194037 189.054084,301.900507 189.308274,301.792609 L192.723325,300.343006 C192.977516,300.235109 193.271046,300.353703 193.378943,300.607893 L194.296552,302.769644 Z M207.692193,300.558262 C207.592259,301.319903 207.229188,301.996735 206.69917,302.490774 L207.720032,314.523767 L210.860016,314.523767 L210.860016,299.213601 L207.692193,300.558262 Z M204.580048,301.729744 C205.44713,301.729744 206.15004,301.013734 206.15004,300.130491 C206.15004,299.247248 205.44713,298.531238 204.580048,298.531238 C203.712965,298.531238 203.010056,299.247248 203.010056,300.130491 C203.010056,301.013734 203.712965,301.729744 204.580048,301.729744 Z" id="Combined-Shape-Copy-36" fill="#000000"></path>
        <text id="Sitra---3-Copy" font-family=".AppleSystemUIFont" font-size="12" font-weight="normal" fill="#3F7092">
            <tspan x="183.401367" y="332">Sitra - </tspan>
            <tspan x="197.238281" y="347">3</tspan>
        </text>
        <path d="M194.296552,302.769644 L201.464822,299.726894 C201.659617,298.150939 202.980086,296.931985 204.580048,296.931985 C205.299492,296.931985 205.962423,297.178454 206.491907,297.593023 L212.626282,294.989136 L213.876037,297.933376 L212.430008,298.547179 L212.430008,314.523767 L213,314.523767 C213.552285,314.523767 214,314.971482 214,315.523767 L214,316 L195.160095,316 L195.160095,315.523767 C195.160095,314.971482 195.607811,314.523767 196.160095,314.523767 L201.440064,314.523767 L202.435577,302.789563 L195.546308,305.713884 L196.497659,307.955127 C196.605557,308.209318 196.486963,308.502848 196.232772,308.610745 L192.817721,310.060349 C192.563531,310.168246 192.270001,310.049652 192.162103,309.795462 L189.043387,302.448227 C188.93549,302.194037 189.054084,301.900507 189.308274,301.792609 L192.723325,300.343006 C192.977516,300.235109 193.271046,300.353703 193.378943,300.607893 L194.296552,302.769644 Z M207.692193,300.558262 C207.592259,301.319903 207.229188,301.996735 206.69917,302.490774 L207.720032,314.523767 L210.860016,314.523767 L210.860016,299.213601 L207.692193,300.558262 Z M204.580048,301.729744 C205.44713,301.729744 206.15004,301.013734 206.15004,300.130491 C206.15004,299.247248 205.44713,298.531238 204.580048,298.531238 C203.712965,298.531238 203.010056,299.247248 203.010056,300.130491 C203.010056,301.013734 203.712965,301.729744 204.580048,301.729744 Z" id="Combined-Shape-Copy-37" fill="#3E7091"></path>
        <path d="M194.296552,410.769644 L201.464822,407.726894 C201.659617,406.150939 202.980086,404.931985 204.580048,404.931985 C205.299492,404.931985 205.962423,405.178454 206.491907,405.593023 L212.626282,402.989136 L213.876037,405.933376 L212.430008,406.547179 L212.430008,422.523767 L213,422.523767 C213.552285,422.523767 214,422.971482 214,423.523767 L214,424 L195.160095,424 L195.160095,423.523767 C195.160095,422.971482 195.607811,422.523767 196.160095,422.523767 L201.440064,422.523767 L202.435577,410.789563 L195.546308,413.713884 L196.497659,415.955127 C196.605557,416.209318 196.486963,416.502848 196.232772,416.610745 L192.817721,418.060349 C192.563531,418.168246 192.270001,418.049652 192.162103,417.795462 L189.043387,410.448227 C188.93549,410.194037 189.054084,409.900507 189.308274,409.792609 L192.723325,408.343006 C192.977516,408.235109 193.271046,408.353703 193.378943,408.607893 L194.296552,410.769644 Z M207.692193,408.558262 C207.592259,409.319903 207.229188,409.996735 206.69917,410.490774 L207.720032,422.523767 L210.860016,422.523767 L210.860016,407.213601 L207.692193,408.558262 Z M204.580048,409.729744 C205.44713,409.729744 206.15004,409.013734 206.15004,408.130491 C206.15004,407.247248 205.44713,406.531238 204.580048,406.531238 C203.712965,406.531238 203.010056,407.247248 203.010056,408.130491 C203.010056,409.013734 203.712965,409.729744 204.580048,409.729744 Z" id="Combined-Shape-Copy-35" fill="#3E7091"></path>
        <path d="M240.5,258.5 L240.5,368.504545" id="Line-5" stroke="#3E7091" stroke-linecap="square"></path>
        <path d="M434,102 L436,102 L436,214 L432,214 L432,106 L383,106 L383,102 L434,102 Z M381,101 L382,101 L382,107 L381,107 L381,101 Z M380,101 L380,107 C379.447715,107 379,106.552285 379,106 L379,102 C379,101.447715 379.447715,101 380,101 Z M437,217 C437,217.552285 436.552285,218 436,218 L432,218 C431.447715,218 431,217.552285 431,217 L437,217 Z M437,215 L437,216 L431,216 L431,215 L437,215 Z" id="Combined-Shape-Copy-9" fill="#4A90E2"></path>
        <path d="M377.5,198.5 L377.5,234.5" id="Line-6" stroke="#3E7091" stroke-linecap="square"></path>
        <path d="M377.5,245.494684 L377.5,339.557096" id="Line-6-Copy" stroke="#3E7091" stroke-linecap="square"></path>
        <path d="M377.5,234.5 L394.529386,234.5" id="Line-7" stroke="#3E7091" stroke-linecap="square"></path>
        <path d="M377.5,244.5 L394.529386,244.5" id="Line-7-Copy" stroke="#3E7091" stroke-linecap="square"></path>
        <path d="M473.480438,245 L491.08936,245 L491.08936,322.445528 L531.380177,322.445528" id="Path-3" stroke="#3E796F" stroke-dasharray="2"></path>
        <rect id="Rectangle" fill="#FFFFFF" x="392" y="218" width="83" height="44"></rect>
        <text id="El-Hamra-port" font-family="GEInspiraSans-Regular, GE Inspira Sans" font-size="12" font-weight="normal" fill="#4A90E2">
            <tspan x="398.402" y="254">El-Hamra port</tspan>
        </text>
        <path d="M444.175379,243.173345 C443.624118,242.805965 443.07162,242.650542 442.335982,242.650542 C441.251541,242.650542 440.565085,242.988296 439.693888,243.844903 C439.623162,243.914446 439.569589,243.964967 439.531038,244 C439.492487,243.964967 439.438915,243.914446 439.368188,243.844903 C438.496991,242.988296 437.810536,242.650542 436.726095,242.650542 C435.641653,242.650542 434.955198,242.988296 434.084001,243.844903 C434.013274,243.914446 433.959702,243.964967 433.921151,244 C433.8826,243.964967 433.829028,243.914446 433.758301,243.844903 C432.887104,242.988296 432.200649,242.650542 431.116207,242.650542 C430.031766,242.650542 429.345311,242.988296 428.474114,243.844903 C428.403387,243.914446 428.349815,243.964967 428.311264,244 C428.272713,243.964967 428.21914,243.914446 428.148414,243.844903 C427.277217,242.988296 426.590762,242.650542 425.50632,242.650542 C425.258998,242.650542 425.032377,242.668109 424.819543,242.705393 C424.540571,242.279443 424.262686,241.833312 424.001453,241.383809 C423.810377,241.055026 423.634695,240.735317 423.477625,240.427923 C423.337543,240.153775 423.213439,239.891697 423.106947,239.643014 C422.94492,239.264644 422.794671,238.839915 422.654993,238.376395 C422.465565,237.74778 422.304241,237.078593 422.169924,236.409999 C422.122995,236.176401 422.082734,235.959293 422.049103,235.763987 C422.028709,235.645549 422.014918,235.55974 422.007712,235.511913 C421.944959,235.095429 422.273176,234.721376 422.701377,234.721376 L428.661882,234.721376 C428.831737,234.721376 428.995819,234.781995 429.123649,234.891973 L431.730304,237.1346 L445.140925,237.1346 C445.442759,237.1346 445.710728,237.324507 445.806176,237.606056 C445.835386,237.69222 445.872728,237.830925 445.908066,238.016237 C446.04244,238.7209 446.04244,239.534497 445.821224,240.404544 C445.662967,241.026971 445.330996,241.661142 444.878211,242.297147 C444.662286,242.600445 444.432158,242.884904 444.201788,243.143774 C444.192866,243.1538 444.184061,243.163658 444.175379,243.173345 Z M427.25941,240.237317 L429.363118,240.237317 C429.556759,240.237317 429.713736,240.082969 429.713736,239.892571 L429.713736,239.203078 C429.713736,239.01268 429.556759,238.858332 429.363118,238.858332 L427.25941,238.858332 C427.065769,238.858332 426.908792,239.01268 426.908792,239.203078 L426.908792,239.892571 C426.908792,240.082969 427.065769,240.237317 427.25941,240.237317 Z M430.765589,227.558867 L430.765589,226.075093 L429.03598,224.617398 L423.087562,230.158369 C422.946988,230.289314 422.72507,230.283417 422.591894,230.145197 L422.109623,229.644658 C421.976447,229.506438 421.982445,229.288236 422.123019,229.157291 L428.530229,223.188955 C428.790958,222.946085 429.196168,222.936171 429.468858,223.165992 L431.923184,225.23447 C432.07861,225.365461 432.168061,225.556691 432.168061,225.757972 L432.168061,227.558867 C432.728799,227.683964 433.261529,227.961164 433.698144,228.390468 C434.819175,229.492725 434.920417,231.217988 434.001869,232.432774 C433.988267,232.450763 433.97264,232.470494 433.954988,232.491967 C433.947226,232.501409 433.938962,232.510442 433.930231,232.519027 C433.793306,232.653659 433.571307,232.653659 433.434382,232.519027 L432.929661,232.022759 C432.806588,231.901746 432.79243,231.71028 432.896408,231.573036 C432.945186,231.508653 432.982417,231.453213 433.008102,231.406717 C433.369169,230.753079 433.268617,229.918313 432.706447,229.365558 C432.021823,228.692399 430.911828,228.692399 430.227204,229.365558 C429.654372,229.928796 429.560834,230.784841 429.946589,231.443705 C429.968235,231.480676 429.997944,231.523998 430.035718,231.573668 C430.140089,231.710916 430.126084,231.902708 430.002842,232.023887 L429.499242,232.519054 C429.490488,232.52766 429.481278,232.535805 429.471649,232.543453 C429.32102,232.663102 429.100264,232.640031 428.978578,232.491924 C428.96151,232.47115 428.946361,232.452028 428.933132,232.434559 C428.013135,231.219679 428.113926,229.493266 429.235506,228.390468 C429.672122,227.961164 430.204852,227.683964 430.765589,227.558867 Z M439.531038,228.860688 L440.93351,228.860688 C441.320792,228.860688 441.634746,229.169385 441.634746,229.550181 L441.634746,231.963405 L437.076713,231.963405 L437.076713,229.550181 C437.076713,229.169385 437.390667,228.860688 437.777948,228.860688 L438.128566,228.860688 L438.128566,227.481703 L437.427331,227.481703 C437.233689,227.481703 437.076713,227.327355 437.076713,227.136957 L437.076713,226.447464 C437.076713,226.257066 437.233689,226.102718 437.427331,226.102718 L438.128566,226.102718 L438.128566,225.413225 C438.128566,225.222827 438.285543,225.068479 438.479184,225.068479 L439.18042,225.068479 C439.374061,225.068479 439.531038,225.222827 439.531038,225.413225 L439.531038,226.102718 L440.232274,226.102718 C440.425915,226.102718 440.582892,226.257066 440.582892,226.447464 L440.582892,227.136957 C440.582892,227.327355 440.425915,227.481703 440.232274,227.481703 L439.531038,227.481703 L439.531038,228.860688 Z M437.076713,236.100361 L437.076713,232.997644 L443.037218,232.997644 C443.323956,232.997644 443.581807,233.169294 443.688299,233.431066 L444.344442,236.100361 L437.076713,236.100361 Z" id="Shape-Copy-11" fill="#4A90E2"></path>
        <rect id="Rectangle-7-Copy-2" fill="#FFFFFF" x="527" y="302" width="40" height="41"></rect>
        <text id="APRC" font-family=".AppleSystemUIFont" font-size="12" font-weight="normal" fill="#679F00">
            <tspan x="530.930664" y="340">APRC</tspan>
        </text>
        <path d="M536.001862,323.991283 L553,324 L553,312 L543.999601,316.393926 L543.999601,312 L535,316.393926 L535.002375,322.99077 C535.00251,323.542758 535.449874,323.990241 536.001862,323.990524 Z M555,306 L555,324 L560,324 L560,306 C560,305.447715 559.552285,305 559,305 L556,305 C555.447715,305 555,305.447715 555,306 Z" id="Shape-Copy-13" fill="#679F00" fill-rule="nonzero"></path>
        <path d="M183.719369,440.022294 C183.842524,440.248077 183.863049,440.432807 183.780946,440.576487 C183.678317,440.740693 183.534639,440.822795 183.349907,440.822795 L170.480301,440.822795 C170.295569,440.822795 170.151891,440.740693 170.049262,440.576487 C169.967159,440.432807 169.987684,440.248077 170.110839,440.022294 L176.484065,429.277097 C176.586694,429.092365 176.730372,429 176.915104,429 C177.099836,429 177.243515,429.092365 177.346144,429.277097 L183.719369,440.022294 Z M177.900337,439.344946 L177.900337,437.867097 L175.929871,437.867097 L175.929871,439.344946 L177.900337,439.344946 Z M177.900337,436.881864 L177.900337,432.448315 L175.929871,432.448315 L175.929871,436.881864 L177.900337,436.881864 Z" id="ion-alert-circled---Ionicons" fill="#FFFFFF"></path>
        <g id="Salam-Alert" transform="translate(156.000000, 109.000000)">
            <rect id="Rectangle-9-Copy" fill="#F34336" x="0" y="0" width="72" height="18" rx="3"></rect>
            <text id="Salam" font-family="GEInspiraSans-Regular, GE Inspira Sans" font-size="12" font-weight="normal" fill="#FFFFFF">
                <tspan x="23.46" y="14">Salam</tspan>
            </text>
            <path d="M18.7193692,14.0222937 C18.8425239,14.2480773 18.8630494,14.4328067 18.7809463,14.5764872 C18.6783173,14.7406935 18.534639,14.8227954 18.3499069,14.8227954 L5.48030142,14.8227954 C5.29556932,14.8227954 5.15189095,14.7406935 5.049262,14.5764872 C4.96715885,14.4328067 4.98768433,14.2480773 5.11083906,14.0222937 L11.4840647,3.27709677 C11.5866937,3.09236467 11.730372,3 11.9151041,3 C12.0998362,3 12.2435146,3.09236467 12.3461436,3.27709677 L18.7193692,14.0222937 Z M12.9003371,13.344946 L12.9003371,11.8670966 L10.9298712,11.8670966 L10.9298712,13.344946 L12.9003371,13.344946 Z M12.9003371,10.8818636 L12.9003371,6.44831533 L10.9298712,6.44831533 L10.9298712,10.8818636 L12.9003371,10.8818636 Z" id="ion-alert-circled---Ionicons-Copy" fill="#FFFFFF"></path>
        </g>
        <path d="M54.2965521,187.769644 L61.4648222,184.726894 C61.6596173,183.150939 62.9800861,181.931985 64.5800476,181.931985 C65.2994919,181.931985 65.9624234,182.178454 66.491907,182.593023 L72.6262816,179.989136 L73.8760374,182.933376 L72.4300079,183.547179 L72.4300079,199.523767 L73,199.523767 C73.5522847,199.523767 74,199.971482 74,200.523767 L74,201 L55.1600953,201 L55.1600953,200.523767 C55.1600953,199.971482 55.6078105,199.523767 56.1600953,199.523767 L61.4400635,199.523767 L62.4355766,187.789563 L55.5463078,190.713884 L56.4976591,192.955127 C56.6055566,193.209318 56.4869627,193.502848 56.2327723,193.610745 L52.8177212,195.060349 C52.5635308,195.168246 52.2700006,195.049652 52.1621032,194.795462 L49.0433873,187.448227 C48.9354899,187.194037 49.0540837,186.900507 49.3082741,186.792609 L52.7233252,185.343006 C52.9775156,185.235109 53.2710458,185.353703 53.3789432,185.607893 L54.2965521,187.769644 Z M67.6921933,185.558262 C67.5922588,186.319903 67.2291879,186.996735 66.6991699,187.490774 L67.7200318,199.523767 L70.8600159,199.523767 L70.8600159,184.213601 L67.6921933,185.558262 Z M64.5800476,186.729744 C65.4471303,186.729744 66.1500397,186.013734 66.1500397,185.130491 C66.1500397,184.247248 65.4471303,183.531238 64.5800476,183.531238 C63.712965,183.531238 63.0100556,184.247248 63.0100556,185.130491 C63.0100556,186.013734 63.712965,186.729744 64.5800476,186.729744 Z" id="Combined-Shape-Copy-20" fill="#3E7091"></path>
        <path d="M54.2965521,249.769644 L61.4648222,246.726894 C61.6596173,245.150939 62.9800861,243.931985 64.5800476,243.931985 C65.2994919,243.931985 65.9624234,244.178454 66.491907,244.593023 L72.6262816,241.989136 L73.8760374,244.933376 L72.4300079,245.547179 L72.4300079,261.523767 L73,261.523767 C73.5522847,261.523767 74,261.971482 74,262.523767 L74,263 L55.1600953,263 L55.1600953,262.523767 C55.1600953,261.971482 55.6078105,261.523767 56.1600953,261.523767 L61.4400635,261.523767 L62.4355766,249.789563 L55.5463078,252.713884 L56.4976591,254.955127 C56.6055566,255.209318 56.4869627,255.502848 56.2327723,255.610745 L52.8177212,257.060349 C52.5635308,257.168246 52.2700006,257.049652 52.1621032,256.795462 L49.0433873,249.448227 C48.9354899,249.194037 49.0540837,248.900507 49.3082741,248.792609 L52.7233252,247.343006 C52.9775156,247.235109 53.2710458,247.353703 53.3789432,247.607893 L54.2965521,249.769644 Z M67.6921933,247.558262 C67.5922588,248.319903 67.2291879,248.996735 66.6991699,249.490774 L67.7200318,261.523767 L70.8600159,261.523767 L70.8600159,246.213601 L67.6921933,247.558262 Z M64.5800476,248.729744 C65.4471303,248.729744 66.1500397,248.013734 66.1500397,247.130491 C66.1500397,246.247248 65.4471303,245.531238 64.5800476,245.531238 C63.712965,245.531238 63.0100556,246.247248 63.0100556,247.130491 C63.0100556,248.013734 63.712965,248.729744 64.5800476,248.729744 Z" id="Combined-Shape-Copy-22" fill="#3E7091"></path>
        <g id="Group-3" transform="translate(512.000000, 247.000000)">
            <rect id="Rectangle-9" fill="#FEC600" x="0" y="0" width="72" height="18" rx="3"></rect>
            <text id="APC" font-family="GEInspiraSans-Regular, GE Inspira Sans" font-size="12" font-weight="normal" fill="#FFFFFF">
                <tspan x="25.494" y="14">APC</tspan>
            </text>
            <path d="M18.7193692,14.0222937 C18.8425239,14.2480773 18.8630494,14.4328067 18.7809463,14.5764872 C18.6783173,14.7406935 18.534639,14.8227954 18.3499069,14.8227954 L5.48030142,14.8227954 C5.29556932,14.8227954 5.15189095,14.7406935 5.049262,14.5764872 C4.96715885,14.4328067 4.98768433,14.2480773 5.11083906,14.0222937 L11.4840647,3.27709677 C11.5866937,3.09236467 11.730372,3 11.9151041,3 C12.0998362,3 12.2435146,3.09236467 12.3461436,3.27709677 L18.7193692,14.0222937 Z M12.9003371,13.344946 L12.9003371,11.8670966 L10.9298712,11.8670966 L10.9298712,13.344946 L12.9003371,13.344946 Z M12.9003371,10.8818636 L12.9003371,6.44831533 L10.9298712,6.44831533 L10.9298712,10.8818636 L12.9003371,10.8818636 Z" id="ion-alert-circled---Ionicons" fill="#FFFFFF"></path>
        </g>
    </g>
</svg>